<?xml version="1.0" encoding="UTF-8" standalone="no"?>
<!DOCTYPE svg PUBLIC "-//W3C//DTD SVG 1.1//EN" "http://www.w3.org/Graphics/SVG/1.1/DTD/svg11.dtd">
<svg width="100%" height="100%" viewBox="0 0 800 800" version="1.1" xmlns="http://www.w3.org/2000/svg" xmlns:xlink="http://www.w3.org/1999/xlink" xml:space="preserve" xmlns:serif="http://www.serif.com/" style="fill-rule:evenodd;clip-rule:evenodd;stroke-linecap:round;stroke-linejoin:round;">
    <g transform="matrix(33.333333,0,0,33.333333,0,0)">
        <path d="M3,21L21,21" style="fill:none;fill-rule:nonzero;stroke:white;stroke-width:2px;"/>
    </g>
    <g transform="matrix(33.333333,0,0,33.333333,0,0)">
        <path d="M19,21L19,7C19,5.114 19,4.172 18.414,3.586C17.828,3 16.886,3 15,3L9,3C7.114,3 6.172,3 5.586,3.586C5,4.172 5,5.114 5,7L5,21" style="fill:none;fill-rule:nonzero;stroke:white;stroke-width:2px;stroke-linecap:butt;"/>
    </g>
    <g transform="matrix(33.333333,0,0,33.333333,0,0)">
        <path d="M9,8L10,8" style="fill:none;fill-rule:nonzero;stroke:white;stroke-width:2px;"/>
    </g>
    <g transform="matrix(33.333333,0,0,33.333333,0,0)">
        <path d="M9,12L10,12" style="fill:none;fill-rule:nonzero;stroke:white;stroke-width:2px;"/>
    </g>
    <g transform="matrix(33.333333,0,0,33.333333,0,0)">
        <path d="M9,16L10,16" style="fill:none;fill-rule:nonzero;stroke:white;stroke-width:2px;"/>
    </g>
    <g transform="matrix(33.333333,0,0,33.333333,0,0)">
        <path d="M14,8L15,8" style="fill:none;fill-rule:nonzero;stroke:white;stroke-width:2px;"/>
    </g>
    <g transform="matrix(33.333333,0,0,33.333333,0,0)">
        <path d="M14,12L15,12" style="fill:none;fill-rule:nonzero;stroke:white;stroke-width:2px;"/>
    </g>
    <g transform="matrix(33.333333,0,0,33.333333,0,0)">
        <path d="M14,16L15,16" style="fill:none;fill-rule:nonzero;stroke:white;stroke-width:2px;"/>
    </g>
</svg>
