<?xml version="1.0" encoding="UTF-8" standalone="no"?>
<!DOCTYPE svg PUBLIC "-//W3C//DTD SVG 1.1//EN" "http://www.w3.org/Graphics/SVG/1.1/DTD/svg11.dtd">
<svg width="100%" height="100%" viewBox="0 0 800 800" version="1.1" xmlns="http://www.w3.org/2000/svg" xmlns:xlink="http://www.w3.org/1999/xlink" xml:space="preserve" xmlns:serif="http://www.serif.com/" style="fill-rule:evenodd;clip-rule:evenodd;stroke-linejoin:round;stroke-miterlimit:2;">
    <g transform="matrix(25,0,0,25,0,0)">
        <path d="M30,25.11L29,25.11L29,24.22C29,23.123 28.097,22.22 27,22.22L26,22.22L26,14.11L27,14.11C28.097,14.11 29,13.207 29,12.11L29,11.22L31,11.22C31.546,11.217 31.994,10.766 31.994,10.22C31.994,9.837 31.774,9.487 31.43,9.32L16.43,2.1C16.158,1.971 15.842,1.971 15.57,2.1L0.57,9.32C0.226,9.487 0.006,9.837 0.006,10.22C0.006,10.766 0.454,11.217 1,11.22L3,11.22L3,12.11C3,13.207 3.903,14.11 5,14.11L6,14.11L6,22.22L5,22.22C3.903,22.22 3,23.123 3,24.22L3,25.11L2,25.11C0.903,25.11 -0,26.013 0,27.11L0,29C0,29.549 0.451,30 1,30L31,30C31.549,30 32,29.549 32,29L32,27.11C32,26.013 31.097,25.11 30,25.11ZM16,4.11L26.62,9.22L5.38,9.22L16,4.11ZM5,12.11L5,11.22L27,11.22L27,12.11L5,12.11ZM24,14.11L24,22.22L21.5,22.22L21.5,14.11L24,14.11ZM19.5,14.11L19.5,22.22L17,22.22L17,14.11L19.5,14.11ZM15,14.11L15,22.22L12.5,22.22L12.5,14.11L15,14.11ZM10.5,14.11L10.5,22.22L8,22.22L8,14.11L10.5,14.11ZM5,24.22L27,24.22L27,25.11L5,25.11L5,24.22ZM30,28L2,28L2,27.11L30,27.11L30,28Z" style="fill:rgb(59,130,246);fill-rule:nonzero;"/>
    </g>
</svg>
