<?xml version="1.0" encoding="UTF-8" standalone="no"?>
<!DOCTYPE svg PUBLIC "-//W3C//DTD SVG 1.1//EN" "http://www.w3.org/Graphics/SVG/1.1/DTD/svg11.dtd">
<svg width="100%" height="100%" viewBox="0 0 800 800" version="1.1" xmlns="http://www.w3.org/2000/svg" xmlns:xlink="http://www.w3.org/1999/xlink" xml:space="preserve" xmlns:serif="http://www.serif.com/" style="fill-rule:evenodd;clip-rule:evenodd;stroke-linejoin:round;stroke-miterlimit:2;">
    <g transform="matrix(2.022496,0,0,2.022496,3.000003,90.847634)">
        <path d="M385.375,65.087C383.936,62.939 381.471,61.683 378.914,61.75L328.218,63.118C324.747,63.212 321.789,65.665 321.057,69.059C320.325,72.454 322.007,75.909 325.131,77.425L336.977,83.175L196.96,183.012L101.551,96.508C96.813,92.212 89.596,92.186 84.828,96.446L4.173,168.491C-0.976,173.09 -1.421,180.992 3.178,186.14C7.776,191.288 15.677,191.734 20.827,187.135L93.092,122.585L187.625,208.294C189.994,210.441 193.001,211.533 196.023,211.533C198.555,211.533 201.097,210.766 203.278,209.211L350.82,104.01L351.521,115.084C351.741,118.548 354.298,121.413 357.714,122.023C358.158,122.102 358.603,122.141 359.042,122.141C361.98,122.141 364.704,120.417 365.927,117.658L386.004,72.331C387.052,69.968 386.815,67.234 385.375,65.087Z" style="fill:rgb(139,92,246);fill-rule:nonzero;"/>
    </g>
</svg>
