<?xml version="1.0" encoding="UTF-8" standalone="no"?>
<!DOCTYPE svg PUBLIC "-//W3C//DTD SVG 1.1//EN" "http://www.w3.org/Graphics/SVG/1.1/DTD/svg11.dtd">
<svg width="100%" height="100%" viewBox="0 0 3230 1275" version="1.1" xmlns="http://www.w3.org/2000/svg" xmlns:xlink="http://www.w3.org/1999/xlink" xml:space="preserve" xmlns:serif="http://www.serif.com/" style="fill-rule:evenodd;clip-rule:evenodd;stroke-linejoin:round;stroke-miterlimit:2;">
    <g>
        <g>
            <g id="features">
                <path id="Sabah" d="M2909.75,625.678L2878.256,625.678L2871.877,624.474L2870.681,623.27L2861.113,614.839L2860.316,612.43L2861.512,610.021L2865.1,607.612L2868.688,606.006L2871.877,605.203L2875.066,605.203L2881.843,607.612L2885.032,608.013L2887.025,608.816L2889.018,611.225L2891.41,614.838L2893.005,616.845L2894.6,617.648L2896.593,618.049L2898.985,618.45L2907.756,621.26L2908.553,622.866L2909.749,625.676L2909.75,625.678ZM2490.759,627.685L2489.962,626.079L2489.165,623.67L2488.766,620.86L2488.367,616.444L2488.766,613.634L2489.563,611.627L2495.144,604.401L2495.941,602.795L2497.137,598.78L2497.536,596.773L2497.137,594.766L2496.34,592.357L2493.549,589.145L2491.954,587.539L2490.359,586.335L2488.764,585.934L2485.973,585.131L2484.378,584.73L2483.182,583.927L2481.986,582.723L2481.189,580.314L2480.79,577.102L2480.79,571.481L2479.993,569.474L2477.202,565.058L2476.405,562.248L2475.608,548.197L2476.007,546.591L2476.406,545.387L2482.386,534.949L2483.183,530.934L2483.98,524.511L2484.379,520.898L2485.176,519.292L2485.973,518.088L2489.96,514.073L2490.757,512.467L2491.554,510.46L2494.345,501.226L2494.744,499.219L2494.345,497.212L2490.358,479.547L2489.162,477.54L2487.966,476.336L2485.574,475.935L2481.986,475.935L2476.803,476.738L2468.032,477.139L2450.89,475.533L2455.674,471.117L2461.654,463.489L2463.647,462.285L2467.634,461.884L2471.222,460.278L2474.013,457.869L2475.608,455.862L2476.804,453.052L2478,445.424L2478.399,438.599L2478.798,436.592L2480.791,432.979L2482.386,431.373L2483.981,430.169L2484.778,428.965L2483.582,426.556L2476.406,429.768L2469.629,429.367L2463.25,426.958L2446.905,412.505L2446.506,410.899L2446.905,409.293L2446.905,408.089L2444.912,407.286L2444.115,408.089L2440.527,410.899L2439.331,408.892L2439.73,406.082L2440.926,403.272L2442.122,397.25L2443.717,394.841L2444.913,392.834L2445.312,391.228L2447.704,389.221L2457.272,383.6L2459.265,379.987L2461.657,377.177L2474.414,367.542L2480.793,353.491L2484.78,349.878L2487.172,353.893L2480.793,365.937L2484.78,371.558L2485.577,369.551L2486.374,364.332L2487.171,362.325L2493.55,367.946L2497.537,369.552L2513.882,370.756L2519.065,370.355L2523.849,368.749L2529.43,363.931L2534.214,356.705L2538.201,348.274L2540.194,340.646L2541.789,332.617L2542.586,329.004L2544.579,325.792L2547.37,323.785L2564.114,314.551L2566.905,311.339L2568.101,306.923L2568.5,298.091L2569.696,294.478L2581.257,276.01L2583.649,267.981L2580.858,262.36L2576.871,263.966L2575.276,261.557L2577.269,257.944L2582.85,256.338L2586.039,254.331L2594.81,241.083L2598.797,237.47L2601.189,236.266L2603.98,235.865L2606.372,236.668L2609.163,237.872L2611.555,238.273L2612.352,236.266L2611.555,230.244L2609.163,229.441L2605.974,231.448L2601.19,231.849L2601.19,230.645L2605.974,228.236L2609.961,224.221L2611.157,223.82L2614.745,224.221L2616.738,223.017L2617.137,222.616L2617.137,221.412L2618.732,215.39L2619.131,214.186L2619.928,212.58L2621.921,210.573L2638.266,198.127L2641.057,195.317L2644.246,192.908L2647.834,191.302L2650.625,188.893L2651.422,185.28L2652.219,178.054L2653.814,175.244L2656.206,174.04L2659.395,171.631L2670.956,155.974L2673.747,153.565L2675.342,150.755L2676.538,147.543L2676.937,142.725L2676.538,136.302L2676.937,134.696L2677.734,133.09L2680.126,129.878L2680.923,127.871L2680.524,121.046L2680.923,117.834L2686.504,115.425L2687.7,112.213L2689.693,104.987L2689.693,100.972L2690.092,99.366L2691.687,98.563L2692.484,97.76L2694.477,94.95L2695.274,92.541L2696.869,90.935L2698.862,89.731L2701.254,89.731L2701.653,90.132L2703.646,94.548L2711.221,99.767L2712.417,101.774L2714.809,115.022L2711.221,113.015L2709.228,112.614L2708.431,113.417L2707.235,119.038L2707.235,120.242L2709.228,122.249L2712.417,123.052L2714.809,124.658L2716.005,128.673L2715.208,135.899L2713.215,141.118L2707.235,149.95L2704.046,156.373L2701.255,164.402L2702.451,171.227L2709.627,172.833L2713.614,170.826L2716.405,167.614L2718.797,164.001L2720.392,162.797L2723.183,161.593L2731.156,153.564L2737.136,149.148L2738.332,147.141L2739.129,140.316L2740.325,139.513L2741.521,139.513L2742.717,138.309L2745.109,133.09L2751.886,126.265L2752.683,123.455L2751.886,119.842L2747.501,111.411L2747.9,107.396L2749.096,105.389L2750.691,104.988L2752.286,105.791L2754.678,106.192L2756.273,105.389L2757.469,104.185L2757.868,102.981L2757.469,102.178L2755.874,101.375L2755.475,99.368L2755.874,97.361L2756.671,96.157L2758.664,95.756L2760.657,96.157L2764.245,97.361L2765.84,96.157L2768.631,93.748L2769.827,94.149L2771.422,94.952L2776.206,96.959L2777.402,97.36L2778.199,98.163L2787.767,103.784L2788.564,104.587L2789.361,106.193L2789.76,109.405L2788.564,118.237L2787.767,120.244L2784.976,121.85L2784.179,125.062L2784.578,128.675L2785.774,131.887L2792.551,140.719L2793.348,143.931L2793.747,155.574L2794.544,158.786L2796.936,162.801L2799.328,164.005L2806.504,164.005L2809.295,164.808L2812.086,166.815L2816.073,171.633L2820.458,176.049L2823.647,178.458L2826.836,179.261L2829.627,178.458L2832.019,176.451L2836.404,169.225L2839.195,165.612L2840.79,165.612L2841.189,168.422L2841.588,173.641L2841.987,173.641L2846.372,178.057L2845.575,177.656L2845.176,178.459L2845.176,180.868L2845.973,180.868L2848.365,181.671L2849.162,182.072L2851.554,184.481L2853.547,185.284L2855.939,185.685L2858.331,184.481L2860.324,184.08L2862.317,185.284L2866.702,190.102L2868.695,193.314L2870.688,197.329L2871.884,197.329L2872.283,195.723L2873.479,194.92L2874.276,195.321L2875.472,196.124L2876.269,197.328L2876.668,198.532L2876.668,202.547L2879.06,207.365L2879.459,208.971L2878.662,210.577L2877.466,212.183L2876.669,213.789L2878.662,219.008L2876.669,231.454L2875.473,234.264L2872.682,234.264L2866.702,233.461L2863.114,234.264L2859.925,236.673L2854.742,241.491L2853.147,244.703L2853.944,247.513L2857.931,252.331L2860.722,259.557L2863.513,260.761L2864.31,261.965L2864.31,263.972L2865.107,265.176L2865.107,266.782L2864.31,269.191L2862.715,270.797L2861.12,271.198L2859.525,272.001L2859.126,274.41L2860.322,277.22L2862.714,278.023L2865.505,279.227L2866.701,283.643L2865.505,286.855L2863.113,289.264L2856.734,293.279L2833.213,301.308L2828.828,306.126L2832.017,305.725L2842.382,300.907L2847.166,299.703L2860.322,299.703L2872.68,298.097L2881.849,299.301L2885.038,298.9L2886.234,296.893L2884.639,292.075L2886.632,290.871L2888.625,290.871L2890.618,291.674L2893.409,292.075L2896.598,292.075L2905.369,290.068L2907.362,288.864L2908.159,286.455L2910.95,284.046L2915.734,280.834L2921.714,272.805L2925.302,271.199L2926.099,269.995L2927.295,269.594L2929.687,270.397L2936.066,276.82L2936.465,278.827L2936.465,280.834L2936.864,282.44L2940.053,284.046L2940.452,286.455L2940.053,290.068L2940.85,294.484L2948.823,304.922L2949.62,306.126L2950.019,307.33L2944.438,314.556L2941.647,316.162L2937.66,317.366L2933.275,317.767L2929.687,316.161L2926.896,317.365L2915.335,316.161L2912.146,317.365L2910.153,319.774L2909.754,321.781L2911.747,322.985L2912.544,324.189L2917.727,339.043L2919.322,340.247L2920.119,340.247L2921.315,339.846L2923.707,339.445L2926.498,338.642L2933.674,335.029L2936.863,334.226L2938.458,334.627L2939.654,336.233L2941.249,337.036L2942.844,336.635L2944.439,335.832L2946.432,335.431L2948.425,336.234L2950.02,339.044L2951.615,339.847L2953.21,339.044L2954.805,336.635L2954.805,335.029L2954.008,333.022L2955.204,329.81L2956.001,328.606L2957.197,327.402L2957.596,325.796L2956.001,322.183L2956.4,320.176L2959.191,318.169L2967.563,317.366L2975.138,313.753L2979.125,314.556L2988.693,319.775L2989.49,320.176L2990.686,319.373L2992.679,316.964L2994.274,316.563L2995.869,317.366L2997.862,318.169L2999.058,318.972L3002.646,319.775L3021.383,331.016L3027.762,336.235L3030.553,337.841L3033.742,339.447L3036.533,341.053L3037.33,343.462L3036.931,345.469L3035.336,346.272L3034.14,347.075L3033.343,347.878L3031.748,358.316L3030.552,362.331L3029.755,366.346L3030.951,370.361L3032.546,370.361L3034.141,365.543L3035.337,363.536L3036.932,361.93L3037.729,359.923L3037.33,355.105L3038.127,353.098L3042.911,349.485L3046.898,349.485L3050.486,352.295L3059.257,362.733L3062.845,366.346L3066.034,367.55L3070.818,368.353L3074.406,371.163L3076.798,374.776L3077.994,379.192L3079.589,377.988L3079.988,377.185L3080.387,375.981L3080.387,373.974L3089.158,380.799L3092.347,381.602L3096.334,383.609L3099.523,387.624L3100.32,391.237L3096.732,393.244L3098.725,394.85L3101.914,396.054L3104.705,396.054L3107.097,394.448L3107.496,392.039L3106.3,390.032L3105.901,388.426L3108.293,386.82L3113.077,387.221L3121.449,391.637L3127.03,392.038L3141.78,385.213L3146.165,384.41L3149.354,385.614L3151.746,388.424L3156.131,394.446L3160.118,398.461L3162.111,400.87L3162.51,404.082L3162.111,408.097L3160.516,414.52L3160.117,417.732L3160.914,426.163L3160.515,430.981L3156.528,434.594L3147.359,444.631L3140.183,448.646L3106.297,461.092L3072.012,471.129L3065.235,475.144L3060.85,477.151L3056.465,478.355L3052.478,478.756L3049.687,478.355L3043.707,475.545L3038.524,474.742L3034.936,473.538L3030.152,474.341L3024.571,478.757L3020.584,481.166L3018.989,481.166L3016.597,479.56L3015.401,478.356L3012.212,472.334L3005.833,465.108L2999.853,461.896L2996.265,460.692L2994.67,461.896L2992.677,461.093L2988.69,463.903L2983.109,468.721L2981.514,467.517L2980.717,468.32L2980.318,470.327L2980.717,472.736L2973.541,470.729L2966.764,474.744L2956.399,486.788L2953.21,488.795L2952.014,490.401L2951.217,492.408L2951.616,494.817L2952.413,495.62L2953.609,496.021L2958.393,498.831L2959.589,500.035L2960.785,501.641L2962.778,507.262L2967.163,514.087L2972.346,520.109L2977.927,525.328L2984.306,530.146L2986.698,532.153L2988.293,533.357L2989.888,534.16L2991.881,534.16L2995.469,534.561L2997.064,534.962L2997.861,536.166L2999.456,539.779L3000.253,540.983L3001.449,541.786L3002.645,542.99L3005.834,544.194L3006.233,540.982L3009.024,540.179L3012.213,541.383L3014.605,542.989L3016.598,545.398L3016.997,547.807L3016.2,550.216L3014.207,552.625L3013.41,554.632L3015.005,557.041L3017.397,558.647L3018.593,560.253L3019.789,561.457L3023.377,559.45L3028.56,555.435L3030.553,556.639L3035.337,557.442L3037.33,558.245L3036.533,560.654L3038.526,564.267L3045.702,572.296L3046.101,573.5L3044.506,575.507L3042.513,576.711L3040.918,576.31L3038.925,575.507L3036.134,575.106L3036.931,577.916L3036.134,580.726L3034.141,583.135L3032.546,585.142L3029.755,587.149L3026.964,587.952L3019.788,587.551L3016.599,587.952L3010.619,589.558L3007.031,590.361L2999.058,590.361L2994.673,589.558L2991.882,587.551L2989.49,590.763L2988.294,591.566L2971.55,596.384L2956.401,597.99L2952.016,599.194L2927.698,611.64L2923.711,612.041L2912.15,608.428L2908.961,608.027L2906.968,607.224L2899.792,600.399L2897.001,598.793L2895.406,597.99L2893.811,597.99L2893.412,597.187L2892.216,593.574L2891.419,592.771L2889.027,592.37L2883.047,590.363L2878.662,589.159L2876.669,588.758L2872.682,585.948L2870.689,582.736L2869.094,579.123L2865.905,575.51L2863.114,575.911L2859.127,578.32L2855.539,581.532L2853.944,583.539L2854.741,585.145L2858.329,587.554L2859.126,589.561L2859.126,597.189L2859.923,599.196L2862.714,602.006L2862.714,604.013L2861.917,606.422L2860.322,608.028L2856.734,610.838L2855.139,612.042L2854.342,613.648L2853.146,614.852L2852.747,616.458L2856.734,620.473L2857.93,622.079L2855.937,621.678L2854.342,622.079L2846.767,625.291L2845.172,623.685L2842.381,622.481L2837.198,622.882L2834.009,622.882L2828.029,621.678L2822.846,620.474L2818.461,617.664L2808.096,606.423L2792.947,598.795L2786.17,593.977L2784.575,591.97L2783.778,590.364L2782.183,589.16L2779.392,588.759L2777.399,589.16L2774.21,591.97L2772.615,592.773L2738.729,593.576L2728.364,590.766L2720.391,590.766L2706.039,593.576L2698.863,591.97L2692.086,587.152L2688.897,586.751L2682.917,591.569L2679.728,592.773L2676.14,592.773L2671.356,590.766L2666.572,593.175L2664.18,593.175L2655.808,581.131L2653.815,581.131L2652.619,583.138L2648.632,587.153L2647.436,589.963L2647.436,591.97L2648.233,593.174L2648.632,594.378L2647.436,595.984L2643.848,596.787L2641.855,595.984L2639.862,595.984L2635.477,600.4L2633.484,601.203L2631.491,600.802L2629.896,599.999L2625.112,591.97L2624.315,589.561L2623.518,588.758L2622.322,588.357L2619.93,588.357L2614.747,583.539L2610.362,584.342L2605.179,587.152L2599.598,588.356L2597.206,588.356L2588.834,585.947L2584.847,585.546L2582.854,585.546L2580.861,584.342L2579.266,588.357L2577.671,590.766L2576.076,592.372L2572.488,594.379L2563.717,603.211L2561.325,604.415L2558.136,603.211L2556.541,601.204L2555.345,597.992L2554.548,595.182L2553.352,593.576L2550.96,592.372L2546.575,590.766L2539,590.365L2535.013,589.161L2533.418,586.752L2532.621,583.54L2531.026,581.934L2528.634,582.335L2526.242,584.744L2524.647,590.766L2524.647,596.788L2523.85,602.409L2516.674,608.431L2516.275,610.84L2515.079,612.847L2512.687,613.65L2510.694,612.446L2509.498,610.84L2508.302,610.439L2500.329,617.665L2499.133,619.271L2497.937,620.475L2493.95,621.679L2492.355,623.285L2490.76,627.701L2490.759,627.685ZM2967.157,308.518L2969.948,309.321L2970.347,311.328L2969.55,312.934L2965.962,314.138L2962.773,315.342L2960.381,315.342L2958.786,314.941L2957.191,313.737L2957.191,312.533L2957.988,310.927L2959.981,309.321L2962.373,308.92L2967.157,308.519L2967.157,308.518ZM3060.842,563.049L3064.829,564.253L3067.221,567.063L3066.424,569.873L3062.039,570.676L3055.262,570.676L3052.471,573.486L3051.275,573.486L3050.478,573.085L3050.478,572.282L3050.079,568.267L3049.282,567.464L3046.89,565.457L3046.093,564.654L3045.694,562.647L3046.491,562.246L3048.883,562.246L3051.275,561.845L3060.843,563.049L3060.842,563.049ZM3020.976,534.143L3023.368,530.931L3028.152,530.931L3033.335,532.938L3037.322,534.945L3037.322,536.551L3034.531,536.551L3032.936,537.755L3032.139,540.164L3032.538,542.974L3028.95,539.361L3027.754,538.96L3026.957,539.763L3026.16,541.77L3025.363,542.974L3024.167,542.171L3021.376,540.164L3018.187,538.558L3015.396,537.755L3013.004,537.755L3012.207,537.354L3009.815,534.945L3003.436,534.142L2990.679,530.127L2990.679,528.923L3005.429,528.923L3007.422,528.12L3009.814,525.711L3011.01,524.908L3014.598,525.711L3016.193,528.12L3017.788,531.332L3020.977,534.142L3020.976,534.143ZM2828.822,138.295L2833.207,144.317L2836.396,149.938L2835.599,155.559L2828.822,161.581L2824.038,162.785L2818.457,162.785L2812.477,161.982L2808.092,160.376L2806.099,159.172L2805.7,157.566L2806.099,155.96L2807.694,154.756L2809.687,153.953L2818.856,153.552L2822.045,152.749L2824.038,151.143L2824.835,147.931L2823.24,146.325L2816.463,145.924L2816.064,143.515L2818.057,141.106L2825.632,140.303L2828.821,138.296L2828.822,138.295ZM2742.712,27.891L2745.104,30.3L2746.3,34.716L2745.901,39.534L2743.908,41.943L2740.719,38.731L2737.928,40.337L2736.732,43.549L2738.725,47.162L2721.184,51.578L2721.981,53.184L2723.576,54.388L2724.772,55.592L2723.576,57.599L2721.981,58.402L2716.798,58.402L2714.805,57.599L2723.576,40.737L2726.367,39.533L2732.746,37.927L2735.138,36.723L2742.713,27.891L2742.712,27.891ZM2773.807,30.3L2787.76,27.891L2792.145,29.095L2794.138,32.307L2794.537,36.723L2792.544,51.176L2790.551,56.797L2787.76,60.41L2784.571,58.804L2780.983,60.008L2770.219,62.015L2768.226,63.219L2767.03,64.423L2762.246,66.43L2760.253,67.634L2759.057,70.043L2758.26,72.05L2757.463,73.656L2755.47,75.262L2753.875,70.846L2752.679,56.393L2753.476,53.583L2754.273,51.977L2753.874,43.948L2754.671,41.941L2755.867,41.138L2758.658,40.335L2760.253,39.131L2765.037,34.715L2769.024,31.905L2771.416,30.701L2773.808,30.3L2773.807,30.3Z" style="fill:rgb(43,43,43);fill-rule:nonzero;stroke:rgb(113,113,113);stroke-width:1px;"/>
                <path id="Perlis" d="M219.767,194.321L219.34,197.331L219.34,199.481L217.205,208.512L216.778,209.372L215.924,210.232L211.227,213.242L209.092,214.962L187.313,239.905L187.313,240.335L186.886,241.195L186.459,243.345L185.605,245.925L184.324,247.645L179.627,241.624L175.357,233.023L171.941,223.562L171.087,214.961L170.233,211.091L171.941,208.081L173.649,203.781L174.503,198.62L174.076,196.9L173.649,193.46L173.649,191.74L174.93,189.59L176.638,187.87L177.919,186.15L177.492,183.57L176.211,178.839L175.784,175.399L177.065,167.228L177.492,162.928L177.919,160.348L179.2,158.628L182.189,157.768L183.897,159.058L184.324,159.488L185.178,160.778L186.886,161.638L189.875,161.638L189.875,161.208L192.864,159.488L197.134,159.488L199.269,160.348L200.55,161.638L207.81,184.001L209.945,187.871L213.788,191.311L219.767,194.321Z" style="fill:rgb(43,43,43);fill-rule:nonzero;stroke:rgb(113,113,113);stroke-width:1px;"/>
                <path id="Kedah" d="M184.322,247.647L185.603,245.927L186.457,243.347L186.884,241.197L187.311,240.337L187.311,239.907L209.09,214.964L211.225,213.244L215.922,210.234L216.776,209.374L217.203,208.514L219.338,199.483L219.338,197.333L219.765,194.323L221.473,195.183L226.17,196.473L229.159,196.903L234.283,196.043L237.272,196.903L243.678,201.634L247.094,203.354L259.478,206.794L266.311,209.804L269.727,210.664L273.143,210.234L285.954,200.773L289.37,200.773L289.797,202.063L289.37,206.794L290.224,208.514L291.932,209.374L293.64,209.804L295.775,209.804L297.91,210.234L302.607,212.814L304.315,216.684L304.742,226.145L305.169,228.295L306.023,230.875L308.585,234.745L309.012,236.465L308.585,238.185L307.731,239.905L307.731,240.335L307.304,242.055L307.731,247.646L308.158,249.366L309.866,252.376L310.72,252.376L311.574,251.086L314.136,250.226L316.698,250.656L324.812,252.376L328.655,251.516L333.779,245.925L337.622,245.065L344.028,250.226L347.444,251.516L356.412,249.366L358.974,250.226L360.255,252.806L360.682,257.106L360.255,261.837L358.547,263.557L355.985,264.847L353.423,268.287L352.996,272.587L359.829,278.608L361.537,282.478L360.256,290.219L359.829,301.83L358.548,308.281L358.121,312.151L356.84,315.591L352.997,317.311L349.154,318.171L345.738,319.891L337.624,336.663L336.343,338.813L335.916,341.393L336.343,343.543L337.197,345.263L335.062,345.263L333.781,346.553L334.635,349.993L335.062,350.423L335.489,351.283L336.343,352.573L336.77,353.003L338.478,353.863L339.332,354.723L339.759,355.583L339.332,356.443L336.77,368.054L336.343,368.914L335.916,369.344L333.354,371.064L332.5,372.354L328.657,376.224L328.657,377.084L329.084,378.804L329.084,379.664L329.938,380.094L330.365,380.524L331.219,380.524L332.5,381.814L332.5,383.964L332.073,387.404L332.073,389.554L331.646,392.134L330.365,395.144L329.084,397.294L326.522,399.874L323.96,400.734L322.679,399.444L321.825,399.874L320.971,400.734L319.69,402.884L318.836,404.174L317.555,406.754L316.701,414.495L316.701,419.656L315.42,425.247L314.993,426.537L314.139,427.827L313.712,429.117L311.15,431.697L309.869,432.557L307.734,433.417L302.61,434.707L295.777,435.567L294.496,436.857L292.361,440.297L291.934,442.447L291.934,443.307L290.226,445.027L285.529,448.467L284.675,449.327L284.248,450.187L282.54,453.197L281.686,456.637L281.686,457.067L281.259,457.067L280.832,458.357L266.74,470.828L265.886,472.548L265.032,475.558L264.178,476.418L261.189,478.998L258.2,482.438L257.346,483.298L256.492,483.298L255.211,483.728L253.503,483.298L252.222,482.438L250.087,481.148L247.952,480.288L247.098,479.858L246.244,478.568L244.536,472.977L250.515,473.837L253.504,473.837L254.358,473.407L254.785,472.977L255.639,471.257L255.639,470.397L252.223,447.174L248.807,405.889L249.234,393.848L249.661,392.128L250.515,389.978L247.099,388.258L243.683,387.828L215.071,386.108L214.217,383.098L212.936,365.896L214.644,366.756L217.206,367.186L219.341,367.186L221.049,365.896L221.476,364.176L219.768,362.886L218.06,362.026L217.206,361.166L219.341,337.513L213.789,297.088L212.508,293.648L209.519,289.778L206.957,285.478L203.541,276.447L196.281,263.546L194.146,255.375L191.157,252.365L184.324,248.065L184.324,247.635L184.322,247.647ZM102.757,251.517L105.319,245.066L110.016,243.346L112.578,240.766L113.432,244.206L111.724,245.926L110.443,248.076L110.443,250.656L110.016,251.946L110.016,254.956L111.297,258.396L110.443,261.406L108.735,264.416L106.6,265.276L103.184,262.696L102.33,259.256L100.622,258.826L98.914,254.956L102.757,251.516L102.757,251.517ZM125.39,226.574L127.525,230.014L128.379,233.454L126.244,234.314L123.682,235.174L121.974,237.324L119.412,238.614L118.558,241.624L115.142,239.474L114.288,234.743L110.445,234.743L107.029,236.033L103.613,239.903L101.051,242.913L97.635,242.913L95.5,245.493L92.938,246.783L91.23,247.213L88.668,237.752L89.949,234.312L89.522,229.151L86.106,227.861L80.982,227.001L77.566,227.001L75.858,224.421L75.004,220.981L75.004,212.38L79.701,214.1L83.544,212.38L89.95,212.81L92.939,214.96L99.772,215.82L102.761,214.96L105.75,212.38L108.312,208.94L110.02,208.51L113.009,208.51L112.155,206.79L111.728,205.5L113.863,205.5L115.571,206.36L116.852,210.66L118.56,213.67L120.695,215.82L124.965,217.54L124.538,219.26L126.246,220.12L127.954,221.41L127.1,223.99L125.392,226.57L125.39,226.574Z" style="fill:rgb(43,43,43);fill-rule:nonzero;stroke:rgb(113,113,113);stroke-width:1px;"/>
                <path id="Kelantan" d="M647.661,328.926L647.234,329.356L639.974,338.387L624.601,352.579L617.768,359.89L616.914,362.47L619.476,373.651L619.903,374.941L620.757,377.091L620.757,377.951L620.33,381.391L620.33,393.002L619.903,393.432L618.195,394.722L618.195,396.442L619.476,408.483L619.476,411.493L619.049,413.643L618.622,413.643L618.195,414.503L618.622,415.363L622.038,419.663L626.308,423.103L627.162,423.963L627.589,426.113L626.735,430.844L624.173,436.005L624.173,436.865L623.319,441.165L622.892,452.776L623.319,455.786L623.746,456.646L623.319,457.506L623.319,458.796L622.038,462.236L622.038,463.096L622.465,463.956L626.308,465.246L627.162,465.246L628.443,466.536L630.151,466.536L631.859,467.396L632.713,468.256L633.994,469.116L634.848,469.116L637.41,472.556L638.264,472.986L639.118,473.846L639.972,473.846L640.399,474.276L641.253,474.706L642.961,476.856L644.669,478.146L645.096,478.576L644.669,479.436L643.815,480.726L643.388,481.156L643.388,482.016L642.961,482.446L642.961,483.306L642.107,483.306L640.826,483.736L639.972,484.596L639.972,485.886L642.107,495.347L642.107,496.637L641.253,497.497L640.399,497.927L639.972,497.927L639.545,498.787L639.545,500.937L639.972,502.657L641.68,508.248L642.107,511.258L641.68,512.978L641.68,517.709L642.534,518.569L644.669,519.429L645.95,519.429L647.231,518.139L649.366,518.139L654.063,520.289L663.885,527.6L664.739,527.6L666.447,528.03L667.301,529.75L667.728,532.76L668.155,534.48L669.009,535.77L669.863,536.63L670.29,537.49L671.998,541.79L671.998,543.08L671.144,546.09L667.301,546.09L665.593,545.23L663.458,543.94L663.031,543.51L662.177,543.51L661.323,543.94L660.469,544.8L660.042,545.66L660.042,548.24L659.615,548.67L659.188,549.96L658.761,550.82L658.761,552.54L659.615,553.83L660.042,554.26L660.469,557.27L660.469,559.85L659.615,560.71L658.761,561.14L656.199,560.71L653.21,560.28L651.502,559.42L651.502,558.99L650.648,558.56L650.221,558.13L648.94,558.13L647.232,560.71L645.097,562.86L642.535,564.58L641.681,565.01L640.827,565.01L639.119,564.58L637.838,564.15L637.411,563.72L635.276,562.43L631.86,560.28L631.006,559.42L630.152,557.7L629.725,557.27L628.871,557.27L627.59,556.84L625.882,557.27L624.601,556.84L623.747,556.84L622.466,556.41L621.612,555.98L619.904,555.98L617.342,556.84L615.634,557.27L613.926,558.99L613.926,560.28L614.353,561.14L614.353,562.43L613.926,562.86L611.791,565.87L609.656,567.59L609.656,568.02L608.375,570.6L607.521,571.03L605.813,571.03L602.824,570.6L601.116,570.17L600.262,569.74L596.419,567.16L595.138,567.16L593.857,567.59L589.587,568.45L588.306,569.31L587.452,569.74L585.317,572.32L581.474,571.89L579.766,571.03L578.912,569.31L577.631,568.02L576.777,567.59L576.35,567.59L575.923,567.16L575.496,566.3L575.496,564.15L575.069,563.29L573.361,561.57L566.528,555.979L565.674,555.119L565.674,552.539L565.247,552.109L564.393,548.669L563.539,547.809L561.831,548.239L550.728,552.97L549.02,552.97L546.458,551.25L546.031,550.82L543.896,550.82L543.469,550.39L541.761,547.81L540.907,546.95L540.48,547.38L539.626,547.81L538.772,548.67L537.918,549.1L535.783,549.1L535.356,548.24L534.502,547.38L534.075,547.38L533.221,547.81L531.94,549.53L531.086,551.25L531.513,552.11L531.513,555.98L529.378,565.011L528.951,566.301L526.389,568.881L525.108,570.601L524.681,571.891L524.254,572.321L524.254,575.331L523.827,576.191L522.973,576.191L521.692,575.761L520.838,575.331L520.411,574.471L520.411,574.041L519.13,571.461L519.13,570.171L519.557,568.451L519.557,566.301L519.13,565.441L518.276,564.581L514.86,562.861L514.006,562.001L512.298,561.141L511.444,561.141L510.59,560.281L510.59,558.561L510.163,557.701L510.163,557.271L509.736,556.411L509.309,555.981L508.882,555.981L508.028,555.551L506.747,555.551L505.893,555.121L505.466,555.121L505.039,554.691L504.612,553.831L504.612,548.67L503.331,547.38L502.477,547.38L501.196,546.95L499.488,547.38L497.78,548.24L497.353,549.1L496.499,551.25L496.499,558.131L495.645,562.862L496.072,567.162L495.645,568.452L495.218,571.462L494.791,571.892L494.364,572.752L493.51,573.182L492.229,573.612L487.959,574.902L486.678,575.332L483.689,578.342L477.71,581.352L476.002,582.642L475.148,583.502L473.44,586.082L472.159,586.942L470.878,587.372L466.608,588.662L465.327,588.662L464.473,587.802L462.765,586.942L459.776,587.372L457.641,585.652L456.36,583.932L455.506,583.502L452.517,582.642L451.663,582.212L449.955,580.492L448.247,580.062L445.685,580.062L443.55,580.492L442.269,580.492L441.842,580.922L439.28,581.782L438.426,582.212L438.426,582.642L437.999,583.502L437.999,585.222L437.572,585.652L436.291,585.652L433.729,585.222L431.594,583.502L430.74,582.642L427.751,580.062L425.616,579.202L417.502,577.052L415.794,571.891L414.513,568.881L410.67,563.29L413.232,559.85L413.659,559.42L414.513,558.99L414.94,558.99L415.794,558.56L418.783,558.56L419.21,557.7L419.637,556.41L419.637,554.26L419.21,551.68L418.783,551.25L418.783,549.53L420.064,548.24L420.918,548.24L422.626,547.38L423.053,546.52L423.907,544.37L424.334,543.08L424.761,542.22L425.188,541.79L425.615,540.93L425.615,540.07L425.188,538.35L423.907,534.91L423.907,533.62L424.761,532.76L426.042,530.61L426.469,530.18L426.896,530.18L428.604,529.75L430.739,529.75L431.593,528.89L432.02,528.03L434.155,522.009L434.155,519.859L432.874,511.688L432.447,510.398L430.312,508.678L428.604,504.808L432.02,502.658L432.874,500.938L433.301,499.218L433.301,496.638L433.728,495.348L434.582,494.488L435.009,493.628L435.436,490.618L435.436,487.178L435.863,486.318L438.425,482.018L438.852,480.728L438.852,476.858L439.706,475.568L439.706,474.708L440.133,473.848L440.133,472.988L439.706,471.268L439.706,470.408L440.133,469.548L440.56,467.398L440.56,465.678L440.987,462.668L441.414,462.238L441.841,460.948L444.403,457.078L445.257,456.218L445.257,451.057L446.538,448.907L446.965,448.047L446.965,445.897L447.819,445.037L451.235,445.037L452.516,443.747L452.943,442.027L453.797,441.167L456.786,438.587L457.64,437.727L458.067,436.437L458.067,435.577L457.64,435.147L457.64,434.287L458.494,432.997L459.348,432.137L463.191,429.557L464.045,428.697L464.045,428.267L464.899,427.837L465.326,427.837L466.607,428.267L467.888,429.987L468.742,430.417L469.169,430.417L470.877,430.847L472.585,430.847L473.866,431.707L476.001,432.997L477.282,432.997L478.563,431.277L481.125,429.987L483.687,429.987L484.541,430.417L485.822,430.417L487.53,429.557L489.665,427.837L490.519,427.407L490.946,426.117L491.373,425.257L490.092,422.247L490.519,416.656L490.946,414.506L491.373,413.646L490.946,412.356L490.092,410.206L490.092,408.486L490.519,406.766L491.373,405.046L491.373,404.616L491.8,403.756L491.8,402.896L490.946,400.316L490.092,398.596L489.238,397.736L487.103,397.736L485.822,396.876L484.114,396.876L483.26,397.736L482.406,397.736L481.552,398.166L481.125,397.736L479.417,396.876L478.99,396.446L476.001,396.446L475.147,396.016L475.147,394.296L476.428,390.426L477.709,387.846L478.563,385.696L478.563,383.546L478.136,380.966L477.282,379.246L475.574,377.956L474.72,377.096L474.293,376.236L474.293,367.205L474.72,365.915L476.001,364.195L477.282,362.905L479.417,361.185L479.844,360.755L480.698,357.745L481.125,347.424L480.698,346.564L484.114,343.124L486.249,342.694L489.238,343.124L490.519,345.274L491.8,347.854L493.508,350.004L497.778,352.154L501.194,351.724L503.329,349.144L505.037,344.844L505.891,343.984L511.87,340.114L514.432,334.953L516.567,333.663L523.4,328.072L524.681,320.331L524.681,311.73L527.67,303.559L532.367,297.538L546.886,285.927L552.438,280.766L554.573,274.315L553.719,258.833L555,248.082L560.124,251.952L570.373,259.263L572.935,260.123L577.632,258.833L578.486,256.683L576.778,254.963L573.362,256.253L575.497,252.813L579.767,253.243L602.827,261.414L607.097,264.424L615.638,273.025L639.125,320.33L643.395,325.491L647.665,328.931L647.661,328.926Z" style="fill:rgb(43,43,43);fill-rule:nonzero;stroke:rgb(113,113,113);stroke-width:1px;"/>
                <path id="Perak" d="M244.535,472.993L246.243,478.584L247.097,479.874L247.951,480.304L250.086,481.164L252.221,482.454L253.502,483.314L255.21,483.744L256.491,483.314L257.345,483.314L258.199,482.454L261.188,479.014L264.177,476.434L265.031,475.574L265.885,472.564L266.739,470.844L280.831,458.373L281.258,457.083L281.685,457.083L281.685,456.653L282.539,453.213L284.247,450.203L284.674,449.343L285.528,448.483L290.225,445.043L291.933,443.323L291.933,442.463L292.36,440.313L294.495,436.873L295.776,435.583L302.609,434.723L307.733,433.433L309.868,432.573L311.149,431.713L313.711,429.133L314.138,427.843L314.992,426.553L315.419,425.263L316.7,419.672L316.7,414.511L317.554,406.77L318.835,404.19L319.689,402.9L320.97,400.75L321.824,399.89L322.678,399.46L323.959,400.75L326.521,399.89L329.083,397.31L330.364,395.16L331.645,392.15L332.072,389.57L332.072,387.42L332.499,383.98L332.499,381.83L331.218,380.54L330.364,380.54L329.937,380.11L329.083,379.68L329.083,378.82L328.656,377.1L328.656,376.24L332.499,372.37L333.353,371.08L335.915,369.36L336.342,368.93L336.769,368.07L339.331,356.459L339.758,355.599L339.331,354.739L338.477,353.879L336.769,353.019L336.342,352.589L335.488,351.299L335.061,350.439L334.634,350.009L333.78,346.569L335.061,345.279L337.196,345.279L338.904,347.429L341.039,352.16L342.32,353.88L344.455,354.74L348.298,354.31L350.006,354.74L354.703,357.75L358.119,362.05L361.108,367.211L363.67,372.372L366.659,373.662L372.211,371.942L381.606,366.351L384.595,363.341L387.157,359.901L388.865,356.031L389.292,351.3L391.854,342.269L397.833,339.259L405.947,337.969L413.207,334.099L420.467,329.368L441.392,321.197L448.225,318.617L452.922,317.327L457.192,318.617L460.181,322.917L461.462,325.067L462.316,326.357L464.024,327.647L466.159,328.077L467.867,328.507L468.294,330.227L467.44,332.377L467.44,334.097L471.283,343.128L474.272,346.568L478.542,347.428L480.25,346.568L480.677,346.568L481.104,347.428L480.677,357.749L479.823,360.759L479.396,361.189L477.261,362.909L475.98,364.199L474.699,365.919L474.272,367.209L474.272,376.24L474.699,377.1L475.553,377.96L477.261,379.25L478.115,380.97L478.542,383.55L478.542,385.7L477.688,387.85L476.407,390.43L475.126,394.3L475.126,396.02L475.98,396.45L478.969,396.45L479.396,396.88L481.104,397.74L481.531,398.17L482.385,397.74L483.239,397.74L484.093,396.88L485.801,396.88L487.082,397.74L489.217,397.74L490.071,398.6L490.925,400.32L491.779,402.9L491.779,403.76L491.352,404.62L491.352,405.05L490.498,406.77L490.071,408.49L490.071,410.21L490.925,412.36L491.352,413.65L490.925,414.51L490.498,416.66L490.071,422.251L491.352,425.261L490.925,426.121L490.498,427.411L489.644,427.841L487.509,429.561L485.801,430.421L484.52,430.421L483.666,429.991L481.104,429.991L478.542,431.281L477.261,433.001L475.98,433.001L473.845,431.711L472.564,430.851L470.856,430.851L469.148,430.421L468.721,430.421L467.867,429.991L466.586,428.271L465.305,427.841L464.878,427.841L464.024,428.271L464.024,428.701L463.17,429.561L459.327,432.141L458.473,433.001L457.619,434.291L457.619,435.151L458.046,435.581L458.046,436.441L457.619,437.731L456.765,438.591L453.776,441.171L452.922,442.031L452.495,443.751L451.214,445.041L447.798,445.041L446.944,445.901L446.944,448.051L446.517,448.911L445.236,451.061L445.236,456.222L444.382,457.082L441.82,460.952L441.393,462.242L440.966,462.672L440.539,465.682L440.539,467.402L440.112,469.552L439.685,470.412L439.685,471.272L440.112,472.992L440.112,473.852L439.685,474.712L439.685,475.572L438.831,476.862L438.831,480.732L438.404,482.022L435.842,486.322L435.415,487.182L435.415,490.622L434.988,493.632L434.561,494.492L433.707,495.352L433.28,496.642L433.28,499.222L432.853,500.942L431.999,502.662L428.583,504.812L430.291,508.682L432.426,510.402L432.853,511.692L434.134,519.863L434.134,522.013L431.999,528.034L431.572,528.894L430.718,529.754L428.583,529.754L426.875,530.184L426.448,530.184L426.021,530.614L424.74,532.764L423.886,533.624L423.886,534.914L425.167,538.354L425.594,540.074L425.594,540.934L425.167,541.794L424.74,542.224L424.313,543.084L423.886,544.374L423.032,546.524L422.605,547.384L420.897,548.244L420.043,548.244L418.762,549.534L418.762,551.254L419.189,551.684L419.616,554.264L419.616,556.414L419.189,557.704L418.762,558.564L415.773,558.564L414.919,558.994L414.492,558.994L413.638,559.424L413.211,559.854L410.649,563.294L414.492,568.885L415.773,571.895L417.481,577.056L414.919,584.797L414.492,588.237L414.492,589.527L415.773,593.827L415.773,594.257L418.335,596.837L419.189,598.557L419.189,599.847L418.762,600.707L418.335,600.707L417.481,601.137L417.054,601.567L415.346,605.437L414.919,607.157L414.492,608.017L411.93,610.597L410.222,613.607L412.784,615.327L414.919,618.337L415.773,619.197L416.627,619.627L417.908,619.197L427.303,621.777L429.438,622.207L430.292,622.637L430.719,623.067L431.146,623.927L431.146,625.217L430.292,626.507L430.292,626.937L429.011,629.517L428.584,629.947L428.157,630.807L428.584,631.667L429.438,632.527L430.719,633.387L431.573,633.817L432,635.967L432.427,644.138L433.708,646.718L435.416,648.438L435.416,650.158L434.989,651.018L434.989,652.308L434.562,654.458L434.562,655.318L434.989,656.178L437.551,657.468L440.54,657.898L440.967,658.328L442.675,658.758L443.956,659.618L443.956,660.478L443.102,661.768L443.102,665.208L444.383,670.369L445.237,672.949L446.091,674.239L446.518,674.239L448.226,673.379L448.653,672.949L449.507,673.379L450.788,674.239L451.642,674.669L453.35,676.389L458.474,683.27L454.204,695.311L453.777,698.751L453.777,699.611L455.912,701.761L456.339,703.481L457.62,718.103L458.474,721.543L459.328,722.403L461.036,724.553L461.463,726.273L461.89,727.563L461.89,729.713L461.036,738.314L461.036,740.034L461.463,740.894L462.317,741.324L463.171,741.324L464.879,742.184L466.587,745.194L463.171,746.054L461.89,747.344L461.036,748.634L454.203,757.665L449.933,761.535L448.225,763.255L446.517,764.115L445.663,764.115L444.382,764.545L443.528,764.115L443.101,763.685L442.674,763.685L442.674,763.255L441.393,761.105L440.966,760.675L438.404,759.385L436.269,757.235L434.561,756.805L433.28,755.515L432.426,752.935L431.999,752.505L430.718,750.355L430.291,749.925L429.437,749.925L429.01,749.495L426.448,749.065L423.886,748.205L423.459,747.775L422.605,747.345L421.751,746.485L421.324,746.485L420.043,745.195L419.616,744.335L419.189,743.905L419.189,743.045L418.762,742.185L417.908,741.755L415.773,740.895L414.065,740.465L411.503,740.895L410.222,741.325L409.368,741.325L408.514,742.185L408.087,743.045L408.087,743.905L407.233,745.195L407.233,745.625L406.806,746.055L407.233,746.915L408.941,748.635L408.941,749.065L410.222,751.645L411.076,755.515L411.503,758.955L409.368,761.535L405.098,764.115L398.265,765.835L395.276,765.835L394.422,765.405L393.995,765.405L393.141,764.975L393.141,764.545L392.714,763.685L391.86,762.395L391.86,757.234L390.152,755.944L388.871,756.374L385.882,757.664L385.455,757.664L384.601,757.234L382.466,755.084L381.612,754.654L381.185,755.084L379.477,755.944L378.196,756.374L377.342,756.374L376.915,755.944L375.634,753.794L373.926,752.074L373.499,752.074L373.072,752.934L372.645,753.364L371.364,753.364L370.937,752.934L370.937,751.214L370.51,750.354L368.802,749.064L367.521,749.064L367.521,750.784L366.667,751.214L364.532,752.934L361.97,752.074L360.689,752.074L358.981,753.364L358.554,753.364L358.554,752.934L358.981,751.644L358.981,749.924L359.408,749.494L360.262,749.494L361.97,749.924L362.824,749.924L363.251,749.494L363.251,748.634L361.543,746.914L361.543,746.484L361.116,744.764L361.116,744.334L359.835,744.334L359.408,744.764L359.408,745.624L358.981,746.054L358.127,746.054L356.846,747.344L355.992,748.634L355.138,749.064L354.711,748.634L354.711,746.914L354.284,745.624L354.711,743.044L354.284,742.184L353.003,742.184L351.295,742.614L349.587,742.614L348.733,742.184L347.452,739.604L345.317,739.604L344.463,740.034L344.036,740.464L341.901,740.464L340.62,741.754L340.62,742.614L340.193,743.904L340.193,744.334L339.339,744.764L338.058,745.194L337.204,745.194L336.35,744.764L335.923,744.334L335.923,742.184L336.777,739.604L338.058,738.314L337.631,737.454L336.777,736.164L331.653,733.154L331.653,732.724L331.226,732.294L331.226,731.434L331.653,731.004L331.653,730.144L332.08,729.714L332.08,728.854L331.226,727.564L330.799,727.134L329.945,727.134L328.237,727.564L322.685,728.854L315.425,729.714L312.009,730.574L311.155,731.004L311.582,730.574L312.009,729.284L309.874,728.424L303.468,729.714L302.187,730.574L300.052,731.434L295.355,730.144L290.231,727.564L287.669,725.844L285.107,722.834L284.253,719.824L283.399,715.954L283.826,706.063L284.68,702.623L287.242,701.333L299.626,701.763L303.469,701.333L306.458,697.463L309.874,695.743L314.144,695.313L317.133,695.743L315.425,691.443L310.728,691.873L306.031,694.453L303.896,695.743L298.772,695.313L297.918,692.303L298.345,687.572L298.345,682.411L296.21,679.401L285.961,672.52L282.972,669.51L279.129,666.5L274.432,665.64L270.162,668.65L268.027,664.35L266.319,657.899L265.465,651.878L266.746,649.298L263.757,648.438L262.903,645.858L262.476,642.848L261.622,639.838L259.487,637.258L257.779,636.828L256.925,635.968L257.779,631.668L259.487,626.507L260.341,623.497L260.341,620.057L261.195,617.047L265.038,614.467L265.892,611.887L266.319,606.296L270.162,592.964L272.724,587.803L269.735,589.093L265.892,587.803L262.903,585.223L261.622,581.353L262.476,577.483L264.184,574.043L266.746,571.893L270.162,574.043L271.443,571.033L273.151,568.883L274.859,567.163L276.567,565.873L271.87,565.013L267.6,566.303L264.611,566.733L263.33,561.142L262.476,551.251L264.184,548.671L270.163,548.241L270.163,546.521L268.882,546.521L265.893,545.231L267.601,542.651L267.174,541.361L263.331,539.641L261.196,539.641L259.915,540.071L259.061,540.071L257.78,537.061L257.78,534.481L259.061,531.041L259.061,528.891L257.78,528.031L256.072,528.031L254.364,527.171L253.937,524.591L251.802,525.881L249.667,526.311L244.97,526.311L242.835,525.451L243.689,523.731L245.824,522.011L246.678,522.011L246.678,519.431L245.824,518.571L244.543,517.711L242.408,515.991L240.273,514.701L238.138,515.131L236.003,516.421L234.722,518.141L232.16,515.131L230.452,509.97L229.171,506.96L224.474,501.369L223.193,497.069L220.204,490.188L218.496,487.608L217.215,482.877L217.215,481.157L218.069,481.157L218.923,481.587L221.912,478.577L224.047,476.857L224.901,475.567L224.901,475.997L239.847,472.127L241.982,472.127L244.544,472.987L244.535,472.993Z" style="fill:rgb(43,43,43);fill-rule:nonzero;stroke:rgb(113,113,113);stroke-width:1px;"/>
                <path id="Sarawak" d="M2450.894,475.529L2468.036,477.135L2476.807,476.734L2481.99,475.931L2485.578,475.931L2487.97,476.332L2489.166,477.536L2490.362,479.543L2494.349,497.208L2494.748,499.215L2494.349,501.222L2491.558,510.456L2490.761,512.463L2489.964,514.069L2485.977,518.084L2485.18,519.288L2484.383,520.894L2483.984,524.507L2483.187,530.93L2482.39,534.945L2476.41,545.383L2476.011,546.587L2475.612,548.193L2476.409,562.244L2477.206,565.054L2479.997,569.47L2480.794,571.477L2480.794,577.098L2481.193,580.31L2481.99,582.719L2483.186,583.923L2484.382,584.726L2485.977,585.127L2488.768,585.93L2490.363,586.331L2491.958,587.535L2493.553,589.141L2496.344,592.353L2497.141,594.762L2497.54,596.769L2497.141,598.776L2495.945,602.791L2495.148,604.397L2489.567,611.623L2488.77,613.63L2488.371,616.44L2488.77,620.856L2489.169,623.666L2489.966,626.075L2490.763,627.681L2489.966,630.893L2487.973,647.353L2485.581,655.382L2481.993,662.608L2480.398,664.615L2473.621,668.228L2472.425,669.834L2472.425,673.849L2475.216,676.659L2479.203,678.666L2481.595,681.476L2481.595,687.498L2474.419,709.177L2473.622,716.403L2473.622,724.031L2474.419,728.447L2478.804,739.688L2479.203,741.695L2478.804,745.308L2478.804,747.315L2479.203,749.724L2482.392,754.943L2483.987,758.958L2483.987,760.965L2482.791,762.972L2480.798,763.373L2479.203,762.972L2477.608,762.169L2476.013,761.768L2472.026,766.184L2468.438,774.615L2462.059,802.718L2462.059,805.93L2465.248,809.543L2468.039,810.346L2468.438,811.952L2462.059,820.383L2460.863,823.996L2460.066,831.624L2458.471,835.237L2455.68,836.843L2448.105,837.646L2436.145,842.865L2430.165,843.668L2424.982,841.259L2420.198,834.033L2417.806,833.23L2414.617,838.048L2411.428,844.873L2409.036,847.282L2398.671,854.508L2395.482,857.318L2393.09,861.333L2392.293,863.34L2391.894,865.347L2391.097,867.354L2389.901,869.361L2387.11,871.77L2385.515,872.171L2385.116,872.974L2386.312,875.784L2391.096,881.806L2392.292,885.419L2390.299,890.237L2388.306,891.441L2386.313,891.842L2384.718,892.645L2383.522,895.054L2383.522,896.66L2385.515,900.273L2386.312,902.28L2385.515,905.893L2383.92,910.309L2383.521,913.922L2386.312,916.732L2388.305,916.732L2392.292,914.725L2394.285,914.324L2396.278,914.324L2398.67,915.127L2401.062,916.331L2402.657,917.535L2405.448,920.345L2408.637,924.761L2410.63,929.177L2411.029,932.389L2408.637,936.002L2404.65,937.206L2396.278,938.009L2392.291,940.418L2385.514,948.447L2382.723,950.053L2379.534,951.659L2371.561,958.484L2367.973,960.893L2360.797,960.09L2358.405,961.294L2357.209,965.309L2357.608,969.324L2358.007,972.134L2356.811,974.543L2352.027,976.149L2337.675,978.156L2332.094,981.368L2329.303,988.594L2327.31,998.631L2327.31,1002.244L2328.107,1003.85L2330.1,1006.66L2330.499,1008.667L2330.499,1016.295L2332.492,1020.711L2334.485,1020.711L2337.674,1019.507L2341.661,1018.704L2343.654,1020.31L2344.451,1022.719L2344.451,1025.529L2344.052,1027.938L2342.457,1031.551L2341.66,1034.763L2341.66,1037.975L2342.059,1041.99L2342.059,1045.202L2339.667,1047.611L2329.302,1051.626L2319.336,1052.83L2317.343,1053.633L2315.35,1055.239L2313.755,1056.845L2312.958,1058.451L2312.161,1060.458L2312.56,1061.662L2312.959,1063.268L2313.756,1065.677L2313.756,1071.298L2311.763,1084.145L2308.574,1093.78L2303.79,1101.809L2300.999,1105.021L2294.222,1110.24L2292.229,1113.452L2292.229,1117.868L2293.026,1121.883L2293.026,1125.898L2292.229,1129.511L2289.04,1132.321L2284.655,1133.525L2280.668,1131.919L2279.871,1131.518L2266.317,1121.481L2261.932,1119.474L2257.547,1119.073L2253.959,1119.876L2226.452,1131.519L2226.053,1131.519L2222.066,1134.329L2220.471,1135.132L2218.079,1134.329L2216.086,1132.322L2214.491,1130.315L2212.498,1128.709L2205.721,1126.702L2198.146,1126.702L2171.834,1131.118L2168.246,1132.322L2163.861,1135.935L2153.097,1149.986L2123.596,1169.658L2119.211,1170.862L2114.028,1168.453L2104.46,1157.212L2100.473,1154.803L2096.885,1154.803L2092.898,1155.606L2085.722,1158.818L2076.951,1158.417L2063.397,1147.979L2054.626,1144.767L2043.862,1142.358L2035.49,1141.957L2033.098,1141.154L2027.118,1136.336L2020.341,1133.124L2013.165,1132.321L2005.989,1133.525L1998.813,1135.934L1996.022,1135.934L1995.623,1134.328L1996.42,1132.321L2002.4,1128.306L2005.191,1125.094L2007.184,1121.481L2008.38,1117.466L2007.981,1113.451L2006.386,1110.641L2003.197,1109.035L1998.812,1107.429L1995.623,1106.626L1986.852,1107.027L1983.264,1106.224L1980.075,1105.421L1976.886,1105.02L1973.697,1106.224L1971.704,1107.83L1969.312,1111.042L1967.319,1112.246L1960.94,1110.64L1905.925,1107.83L1901.54,1108.633L1898.351,1110.64L1895.959,1113.45L1892.77,1115.859L1889.581,1117.063L1878.02,1117.866L1873.635,1119.472L1852.506,1129.509L1848.918,1132.319L1847.722,1137.137L1848.519,1138.743L1852.904,1138.743L1853.701,1140.349L1853.701,1142.758L1853.302,1144.765L1847.322,1156.408L1837.754,1184.511L1836.159,1186.518L1833.767,1187.722L1828.983,1188.525L1814.233,1188.124L1802.672,1192.139L1786.327,1211.811L1775.563,1214.621L1769.982,1213.015L1760.414,1209L1755.63,1207.394L1749.65,1207.394L1734.102,1213.817L1729.717,1219.839L1727.325,1221.043L1725.332,1216.627L1724.535,1213.415L1723.738,1210.605L1721.745,1208.999L1718.556,1208.999L1711.38,1211.408L1707.393,1212.211L1703.805,1211.81L1699.42,1210.606L1674.703,1199.766L1671.115,1199.365L1629.654,1209.803L1618.093,1210.204L1612.512,1211.408L1607.329,1213.817L1596.964,1222.649L1595.369,1225.459L1594.97,1228.671L1594.571,1230.277L1593.375,1231.08L1592.179,1231.08L1590.584,1229.474L1589.787,1229.073L1587.794,1230.277L1587.395,1230.678L1583.807,1232.284L1583.01,1232.284L1581.017,1231.481L1579.821,1231.481L1577.828,1232.685L1574.639,1235.897L1571.848,1237.101L1569.456,1236.7L1567.861,1235.496L1566.665,1233.89L1565.469,1233.087L1563.077,1233.087L1562.678,1233.488L1561.881,1234.692L1559.888,1237.101L1552.313,1240.714L1543.542,1239.911L1534.771,1235.495L1527.994,1229.874L1520.419,1219.436L1517.23,1216.626L1514.838,1215.823L1505.669,1213.816L1502.878,1214.217L1500.486,1215.02L1498.493,1214.217L1498.094,1210.604L1497.297,1205.786L1488.128,1192.538L1484.141,1184.509L1481.35,1180.896L1478.161,1178.889L1467.397,1177.685L1463.809,1176.079L1459.424,1173.269L1455.836,1166.043L1452.248,1162.831L1445.471,1159.619L1443.079,1157.612L1441.086,1153.597L1437.498,1142.757L1435.106,1139.947L1431.917,1137.94L1428.329,1137.94L1424.741,1138.743L1421.153,1138.342L1417.565,1135.532L1414.376,1127.503L1413.18,1126.299L1409.592,1128.306L1408.396,1127.905L1407.997,1122.686L1406.801,1121.08L1390.456,1106.627L1386.868,1102.211L1384.875,1098.196L1383.679,1094.583L1383.679,1086.152L1384.875,1071.699L1383.679,1068.086L1380.49,1066.882L1372.517,1066.481L1370.125,1065.678L1368.132,1064.072L1366.139,1061.663L1364.943,1059.656L1364.146,1057.247L1364.146,1054.437L1362.95,1047.612L1362.95,1044.802L1364.545,1042.393L1371.322,1036.772L1373.315,1034.363L1376.106,1030.348L1380.89,1021.516L1384.478,1011.881L1385.275,1015.093L1385.674,1019.108L1387.667,1026.736L1388.066,1030.349L1387.269,1033.561L1386.472,1035.97L1386.073,1038.78L1388.066,1043.196L1393.249,1050.824L1396.837,1054.437L1400.425,1057.247L1411.986,1062.065L1418.365,1066.08L1425.94,1069.292L1429.129,1071.701L1431.122,1074.913L1434.311,1081.336L1436.703,1084.548L1439.095,1084.949L1448.264,1084.949L1450.656,1084.548L1453.447,1082.942L1457.434,1082.541L1480.955,1082.541L1483.347,1083.344L1486.935,1085.753L1488.928,1086.556L1489.725,1085.753L1492.914,1083.344L1494.11,1082.541L1495.705,1082.14L1496.901,1081.739L1498.097,1082.542L1502.482,1087.36L1503.678,1087.761L1504.475,1084.549L1506.468,1082.542L1506.867,1081.338L1506.468,1080.134L1505.671,1078.127L1505.671,1077.324L1505.272,1071.703L1505.671,1069.696L1507.664,1065.681L1510.853,1064.075L1513.245,1064.878L1514.84,1070.097L1516.435,1072.506L1517.232,1074.915L1516.833,1077.725L1516.833,1078.929L1518.428,1081.338L1519.624,1082.141L1520.82,1082.542L1522.016,1083.345L1523.611,1083.746L1527.598,1083.746L1529.591,1082.943L1531.983,1079.731L1537.564,1077.724L1540.753,1075.717L1543.544,1075.316L1545.936,1078.929L1543.943,1081.739L1542.348,1084.148L1541.152,1086.958L1540.753,1090.973L1540.354,1092.177L1537.165,1095.79L1535.969,1097.797L1540.753,1095.79L1543.544,1095.389L1545.936,1096.593L1547.929,1098.6L1548.328,1100.607L1549.125,1102.213L1551.118,1103.016L1552.713,1102.615L1556.7,1100.608L1558.693,1100.608L1561.085,1101.411L1568.66,1105.426L1579.424,1108.638L1584.208,1111.448L1586.6,1115.864L1585.404,1120.28L1582.215,1123.893L1575.039,1128.309L1575.039,1129.915L1579.823,1129.514L1583.81,1129.113L1587.398,1127.106L1590.986,1123.894L1592.581,1120.682L1592.581,1117.069L1591.784,1113.456L1591.385,1110.646L1596.568,1106.631L1604.94,1107.835L1620.886,1114.258L1628.461,1119.477L1642.813,1133.93L1649.59,1138.748L1660.752,1143.967L1663.144,1144.77L1667.529,1144.369L1673.509,1141.157L1677.496,1139.953L1683.476,1142.362L1690.253,1147.581L1697.429,1151.194L1705.402,1147.581L1702.213,1147.18L1697.03,1145.574L1694.638,1144.771L1693.841,1143.567L1692.246,1138.749L1690.651,1137.545L1687.86,1137.144L1682.677,1135.137L1679.886,1134.736L1677.893,1135.539L1671.116,1138.751L1667.129,1138.751L1663.541,1137.547L1660.75,1135.54L1657.959,1132.73L1654.77,1130.321L1646.398,1127.109L1643.607,1124.7L1640.019,1115.868L1636.431,1112.255L1635.634,1109.846L1635.634,1103.021L1638.425,1096.598L1640.02,1089.773L1641.615,1087.364L1652.379,1085.357L1656.366,1084.956L1659.954,1086.562L1662.346,1089.774L1664.738,1094.19L1667.529,1096.599L1671.914,1094.592L1674.306,1094.191L1676.698,1096.198L1679.887,1097.804L1683.874,1096.6L1680.286,1095.396L1678.293,1094.593L1675.104,1092.184L1673.509,1091.783L1671.914,1091.783L1668.326,1090.98L1667.13,1090.98L1666.333,1090.579L1666.333,1088.17L1664.34,1085.36L1663.941,1084.557L1663.144,1083.754L1659.955,1082.951L1658.759,1082.55L1657.962,1081.747L1653.577,1074.521L1652.78,1072.112L1652.381,1069.302L1653.178,1068.098L1657.165,1066.894L1658.76,1066.091L1658.361,1064.887L1655.57,1063.281L1654.773,1061.675L1655.57,1057.66L1657.165,1054.448L1661.152,1048.025L1666.733,1035.981L1672.314,1018.718L1672.713,1014.302L1673.51,1013.499L1675.902,1013.9L1679.49,1015.104L1683.875,1014.703L1679.091,1010.688L1678.692,1006.272L1681.483,1003.863L1684.672,1003.863L1688.26,1005.469L1695.037,1006.673L1696.632,1006.272L1699.024,1004.666L1700.22,1003.462L1703.808,998.644L1704.207,997.038L1702.612,995.432L1700.619,996.235L1698.626,998.242L1697.031,1003.06L1695.436,1003.461L1693.443,1002.658L1688.26,999.446L1684.672,998.643L1671.118,1000.65L1668.726,1000.249L1667.53,998.242L1667.53,993.826L1668.726,991.016L1671.517,988.206L1675.105,986.199L1678.693,987.002L1677.098,983.389L1673.51,982.185L1670.321,981.382L1668.726,980.178L1669.125,976.565L1671.118,968.134L1673.111,954.886L1675.503,949.667L1679.888,946.054L1681.483,949.266L1683.875,950.872L1690.254,952.879L1692.247,954.485L1697.031,960.106L1698.626,961.31L1699.423,962.113L1700.619,962.916L1702.214,963.719L1703.41,963.318L1709.39,959.303L1710.985,958.902L1717.364,958.099L1718.56,958.099L1722.148,960.909L1725.736,962.916L1724.141,959.303L1720.553,955.69L1714.573,950.069L1712.978,947.66L1710.586,940.032L1709.39,937.222L1714.971,937.623L1720.154,938.827L1724.539,939.228L1728.127,936.016L1729.323,936.417L1729.323,936.818L1729.722,936.417L1730.918,936.016L1726.931,934.41L1719.755,932.804L1716.964,930.797L1714.572,928.79L1712.579,926.783L1711.782,923.973L1711.782,919.557L1714.971,907.914L1715.768,900.688L1716.964,897.878L1718.957,895.871L1732.511,885.834L1752.444,872.987L1758.025,870.177L1793.506,863.352L1821.811,862.549L1874.035,848.498L1925.063,834.848L1953.368,828.826L1964.929,824.41L1966.922,824.41L1999.213,814.373L2005.193,811.161L2015.159,800.321L2019.146,793.496L2016.754,789.08L2017.95,787.474L2022.734,784.262L2031.903,776.233L2033.498,775.43L2034.295,773.423L2040.674,763.788L2055.026,750.941L2058.215,745.722L2059.012,744.518L2059.411,742.912L2059.81,738.897L2060.607,736.89L2064.992,733.678L2065.789,732.474L2067.384,730.467L2076.155,720.43L2080.54,712.802L2081.736,708.787L2082.533,704.371L2083.729,700.758L2087.317,697.948L2094.892,693.532L2139.94,654.59L2178.61,604.005L2182.597,594.771L2181.002,587.545L2184.989,581.523L2186.982,573.494L2186.982,564.662L2182.597,546.997L2183.793,544.187L2188.178,542.983L2200.138,548.604L2210.503,550.21L2214.091,552.217L2220.071,557.035L2224.855,558.641L2226.848,560.247L2228.443,563.86L2229.639,564.663L2232.43,564.663L2233.626,565.064L2234.025,566.268L2234.424,567.874L2234.823,569.078L2236.816,571.085L2238.012,573.494L2239.208,578.713L2239.208,583.932L2241.999,587.545L2243.195,595.976L2242.398,597.582L2240.006,599.991L2239.209,601.195L2239.608,604.005L2240.405,605.611L2246.784,606.012L2254.757,607.618L2262.332,606.414L2265.92,606.414L2268.312,608.823L2271.9,620.867L2273.893,624.48L2276.684,628.093L2288.245,638.531L2291.833,641.341L2293.428,642.947L2294.225,644.954L2295.82,649.37L2296.617,650.976L2304.192,651.779L2312.963,646.56L2330.105,630.501L2331.301,627.691L2332.497,620.063L2333.693,616.45L2338.078,610.027L2339.274,606.414L2338.477,603.202L2332.896,605.611L2332.896,601.998L2333.693,599.991L2334.889,598.787L2339.274,594.772L2341.267,591.56L2342.862,588.348L2344.457,581.122L2344.856,575.903L2343.66,575.1L2340.869,575.501L2337.281,574.297L2333.693,569.078L2332.896,562.253L2331.7,540.172L2331.301,536.157L2330.105,532.544L2326.517,525.318L2325.321,522.106L2325.321,518.894L2325.72,518.894L2327.315,517.288L2334.092,514.478L2336.883,512.471L2342.863,506.449L2346.451,504.442L2350.438,503.238L2354.026,503.639L2357.215,504.04L2360.404,504.04L2363.593,502.033L2364.789,499.223L2364.789,496.413L2365.188,493.201L2369.573,489.186L2371.566,488.383L2373.161,487.179L2374.756,485.573L2375.952,483.967L2377.148,487.982L2377.148,495.208L2378.344,502.033L2377.148,516.887L2377.945,531.741L2379.54,538.967L2385.52,553.821L2387.513,561.047L2389.905,579.515L2391.5,581.924L2393.892,583.53L2404.257,587.545L2408.244,588.348L2413.825,587.947L2415.42,588.348L2418.211,590.757L2420.204,591.56L2423.792,591.56L2425.387,591.961L2428.576,594.37L2432.961,596.377L2436.948,596.377L2439.739,593.567L2438.942,589.552L2436.55,585.537L2429.773,579.515L2425.786,573.894L2423.394,566.266L2422.198,558.638L2422.198,551.412L2423.793,543.784L2424.192,540.572L2423.395,536.156L2411.435,500.827L2406.651,494.404L2404.259,492.798L2401.867,491.594L2399.874,489.988L2399.874,485.572L2403.063,485.572L2405.854,485.171L2407.847,483.967L2409.84,477.544L2411.833,475.938L2414.225,476.339L2416.617,478.748L2417.016,479.952L2417.813,480.353L2423.793,480.353L2425.786,481.156L2426.982,482.36L2428.975,485.973L2432.164,487.177L2436.151,487.177L2438.942,486.776L2441.334,485.17L2447.314,478.747L2448.111,477.543L2450.902,475.536L2450.894,475.529ZM1710.584,954.48L1710.584,955.283L1710.983,956.889L1710.186,958.093L1708.591,956.889L1706.598,956.086L1705.003,956.889L1703.807,958.495L1703.01,960.502L1701.017,957.692L1697.828,950.064L1695.835,948.458L1692.247,946.852L1691.45,943.239L1692.646,934.808L1693.045,927.18L1689.856,896.668L1690.255,887.033L1692.647,881.412L1699.026,883.821L1703.013,889.442L1705.006,897.471L1705.006,929.99L1706.601,943.64L1710.588,954.48L1710.584,954.48Z" style="fill:rgb(43,43,43);fill-rule:nonzero;stroke:rgb(113,113,113);stroke-width:1px;"/>
                <path id="Pulau-Pinang" serif:id="Pulau Pinang" d="M215.069,386.123L243.681,387.843L247.097,388.273L250.513,389.993L249.659,392.143L249.232,393.863L248.805,405.904L252.221,447.189L255.637,470.412L255.637,471.272L254.783,472.992L254.356,473.422L253.502,473.852L250.513,473.852L244.534,472.992L241.972,472.132L239.837,472.132L224.891,476.002L224.891,475.572L225.745,474.282L227.453,467.831L230.015,461.81L230.442,457.51L230.015,455.36L228.307,451.49L227.88,450.2L228.307,447.62L230.015,444.18L230.442,442.03L230.015,439.45L225.318,429.989L221.048,424.398L220.194,421.818L219.767,417.087L221.048,399.885L219.767,395.154L215.497,387.413L215.07,386.123L215.069,386.123ZM206.101,409.776L207.809,412.786L210.798,414.506L212.933,416.226L209.09,423.107L208.236,430.848L207.382,434.288L202.685,443.749L202.258,447.189L191.582,445.469L183.468,445.469L183.041,445.899L183.041,446.329L182.614,446.329L181.333,445.899L180.479,445.039L180.479,444.179L183.041,442.459L183.895,439.879L182.614,429.128L183.041,420.097L182.614,417.947L180.906,415.367L180.479,414.507L180.906,412.357L181.76,411.067L181.76,409.777L180.479,408.057L183.041,407.197L183.895,408.487L184.749,410.207L186.457,411.067L188.165,410.637L189.446,409.347L190.3,407.627L191.581,406.767L194.997,405.907L199.267,406.337L203.11,407.197L206.099,409.777L206.101,409.776Z" style="fill:rgb(43,43,43);fill-rule:nonzero;stroke:rgb(113,113,113);stroke-width:1px;"/>
                <path id="Selangor" d="M311.153,731.022L312.007,730.592L315.423,729.732L322.683,728.872L328.235,727.582L329.943,727.152L330.797,727.152L331.224,727.582L332.078,728.872L332.078,729.732L331.651,730.162L331.651,731.022L331.224,731.452L331.224,732.312L331.651,732.742L331.651,733.172L336.775,736.182L337.629,737.472L338.056,738.332L336.775,739.622L335.921,742.202L335.921,744.352L336.348,744.782L337.202,745.212L338.056,745.212L339.337,744.782L340.191,744.352L340.191,743.922L340.618,742.632L340.618,741.772L341.899,740.482L344.034,740.482L344.461,740.052L345.315,739.622L347.45,739.622L348.731,742.202L349.585,742.632L351.293,742.632L353.001,742.202L354.282,742.202L354.709,743.062L354.282,745.642L354.709,746.932L354.709,748.652L355.136,749.082L355.99,748.652L356.844,747.362L358.125,746.072L358.979,746.072L359.406,745.642L359.406,744.782L359.833,744.352L361.114,744.352L361.114,744.782L361.541,746.502L361.541,746.932L363.249,748.652L363.249,749.512L362.822,749.942L361.968,749.942L360.26,749.512L359.406,749.512L358.979,749.942L358.979,751.662L358.552,752.952L358.552,753.382L358.979,753.382L360.687,752.092L361.968,752.092L364.53,752.952L366.665,751.232L367.519,750.802L367.519,749.082L368.8,749.082L370.508,750.372L370.935,751.232L370.935,752.952L371.362,753.382L372.643,753.382L373.07,752.952L373.497,752.092L373.924,752.092L375.632,753.812L376.913,755.962L377.34,756.392L378.194,756.392L379.475,755.962L381.183,755.102L381.61,754.672L382.464,755.102L384.599,757.252L385.453,757.682L385.88,757.682L388.869,756.392L390.15,755.962L391.858,757.252L391.858,762.413L392.712,763.703L393.139,764.563L393.139,764.993L393.993,765.423L394.42,765.423L395.274,765.853L398.263,765.853L405.096,764.133L409.366,761.553L411.501,758.973L411.074,755.533L410.22,751.663L408.939,749.083L408.939,748.653L407.231,746.933L406.804,746.073L407.231,745.643L407.231,745.213L408.085,743.923L408.085,743.063L408.512,742.203L409.366,741.343L410.22,741.343L411.501,740.913L414.063,740.483L415.771,740.913L417.906,741.773L418.76,742.203L419.187,743.063L419.187,743.923L419.614,744.353L420.041,745.213L421.322,746.503L421.749,746.503L422.603,747.363L423.457,747.793L423.884,748.223L426.446,749.083L429.008,749.513L429.435,749.943L430.289,749.943L430.716,750.373L431.997,752.523L432.424,752.953L433.278,755.533L434.559,756.823L436.267,757.253L438.402,759.403L440.964,760.693L441.391,761.123L442.672,763.273L442.672,763.703L443.099,763.703L443.526,764.133L444.38,764.563L445.661,764.133L446.515,764.133L448.223,763.273L449.931,761.553L454.201,757.683L461.034,748.652L461.888,747.362L463.169,746.072L466.585,745.212L472.137,753.813L474.699,756.393L475.98,756.823L480.25,758.973L483.666,758.973L487.509,760.693L493.915,764.563L495.196,765.423L496.05,767.573L497.331,768.863L497.758,769.723L497.758,771.013L498.612,772.733L501.601,777.033L503.309,780.043L503.736,781.763L502.455,787.784L502.028,788.644L500.747,789.934L499.466,790.364L498.612,790.794L498.185,791.224L494.769,797.675L493.915,799.395L493.915,802.405L494.342,802.835L494.769,803.695L496.05,805.845L496.477,807.135L496.477,807.565L498.185,814.016L498.185,815.306L497.758,816.166L496.05,819.176L493.915,824.767L506.726,841.539L507.58,841.539L508.007,841.969L510.142,842.399L517.402,846.269L518.683,846.269L523.807,847.129L525.088,847.129L527.223,849.279L528.077,851.429L529.358,853.579L529.785,854.869L529.785,856.589L529.358,861.75L529.358,862.61L529.785,863.47L530.212,865.19L531.493,867.34L531.92,868.2L532.347,868.63L532.774,869.92L532.774,872.07L531.92,878.521L531.92,881.101L532.347,884.111L532.347,887.551L533.201,890.131L533.201,892.281L532.774,893.141L531.493,893.571L530.212,894.431L529.358,894.861L528.931,895.721L527.65,899.591L527.223,902.171L527.223,904.321L526.796,906.041L525.515,907.331L522.099,909.911L521.672,910.341L520.818,912.061L519.537,915.931L519.11,920.662L518.256,922.812L517.829,923.672L516.548,924.962L514.413,926.682L511.851,927.542L510.997,927.542L503.737,926.252L497.758,925.822L496.05,925.822L493.061,926.252L492.634,927.972L493.061,931.412L495.196,943.023L495.623,951.194L490.499,961.945L488.791,965.385L488.364,969.255L487.937,970.545L485.802,974.845L485.375,979.576L483.667,979.576L481.105,977.856L479.397,975.706L475.981,973.556L464.878,971.406L461.035,969.686L454.202,968.396L449.932,966.676L442.245,961.085L437.548,955.494L427.726,940.442L421.747,935.281L412.779,933.131L404.238,932.271L399.114,928.831L402.53,920.23L398.26,919.37L398.687,916.79L408.509,904.749L411.498,901.739L414.06,900.879L416.195,898.729L416.195,893.568L414.914,883.677L413.633,881.097L408.081,876.797L406.8,874.217L402.53,848.414L401.676,844.114L398.687,841.104L391.854,835.083L391,833.793L390.573,832.073L389.292,830.353L385.449,829.493L383.314,828.633L381.606,827.343L381.179,826.483L379.898,823.043L370.503,810.572L364.097,804.551L362.816,802.831L361.108,798.1L357.265,792.509L355.557,783.478L353.849,779.178L350.86,774.878L336.341,764.987L331.644,762.837L329.509,761.547L328.655,760.257L325.239,754.666L320.115,748.215L317.126,745.635L307.731,744.345L305.596,742.195L305.596,738.755L307.731,734.024L311.147,731.014L311.153,731.022ZM484.531,857.886L482.823,857.886L478.126,855.736L475.991,853.156L474.71,852.726L474.283,852.726L473.429,853.586L472.148,854.446L469.586,855.736L469.586,856.166L469.159,856.596L468.305,857.886L465.743,862.617L465.743,863.477L466.17,870.358L466.597,871.218L467.451,872.508L467.878,872.938L468.305,873.798L468.732,874.228L471.294,875.518L472.148,876.378L472.575,877.238L472.575,878.958L473.002,879.388L473.002,879.818L473.856,880.678L474.283,881.968L474.283,883.688L473.002,885.408L472.575,885.838L472.575,887.558L473.429,890.138L473.429,890.998L475.137,891.858L477.699,891.858L483.251,891.428L484.532,891.428L484.959,891.858L485.386,891.858L486.24,893.578L486.667,893.578L487.094,893.148L487.521,892.288L487.948,890.998L488.375,890.568L489.229,890.138L490.51,890.138L490.937,889.278L491.364,888.848L491.364,887.558L490.51,879.817L489.656,875.947L489.229,873.797L489.656,872.507L490.937,871.217L490.937,870.357L491.364,867.347L491.791,866.487L493.072,865.627L493.499,864.767L493.499,862.617L492.218,860.037L491.364,857.887L490.51,857.027L490.083,856.167L489.656,855.737L488.802,856.167L486.667,857.027L485.813,857.457L484.532,857.887L484.531,857.886ZM477.271,924.114L478.979,923.684L481.541,921.104L482.395,919.814L483.249,918.094L487.092,913.363L487.092,909.923L485.811,907.773L484.103,906.483L483.676,902.613L481.968,903.903L481.114,903.903L480.26,904.763L477.271,905.193L475.99,905.623L475.563,906.913L475.99,908.203L476.844,909.063L476.844,910.353L475.99,910.783L475.99,912.073L476.844,915.083L476.844,916.373L476.417,916.803L475.99,917.663L475.136,918.523L474.709,920.243L474.709,921.533L475.563,923.253L477.271,924.113L477.271,924.114ZM396.133,889.71L395.706,891.86L393.998,893.15L391.009,894.01L389.728,891.86L391.009,889.28L394.852,887.99L396.133,889.71ZM409.371,886.27L409.371,892.721L408.944,897.452L406.382,900.032L402.539,901.322L399.55,903.472L397.415,905.622L395.707,906.052L395.28,904.762L395.707,902.612L400.404,890.571L403.393,886.271L406.809,884.981L409.371,886.271L409.371,886.27Z" style="fill:rgb(43,43,43);fill-rule:nonzero;stroke:rgb(113,113,113);stroke-width:1px;"/>
                <path id="Negeri-Sembilan" serif:id="Negeri Sembilan" d="M485.386,979.59L485.813,974.859L487.948,970.559L488.375,969.269L488.802,965.399L490.51,961.959L495.634,951.208L495.207,943.037L493.072,931.426L492.645,927.986L493.072,926.266L496.061,925.836L497.769,925.836L503.748,926.266L511.008,927.556L511.862,927.556L514.424,926.696L516.559,924.976L517.84,923.686L518.267,922.826L519.121,920.676L519.548,915.945L520.829,912.075L521.683,910.355L522.11,909.925L525.526,907.345L526.807,906.055L527.234,904.335L527.234,902.185L527.661,899.605L528.942,895.735L529.369,894.875L530.223,894.445L531.504,893.585L532.785,893.155L533.212,892.295L533.212,890.145L532.358,887.565L532.358,884.125L531.931,881.115L531.931,878.535L532.785,872.084L532.785,869.934L532.358,868.644L531.931,868.214L531.504,867.354L530.223,865.204L529.796,863.484L529.369,862.624L529.369,861.764L529.796,856.603L529.796,854.883L529.369,853.593L528.088,851.443L527.234,849.293L525.099,847.143L523.818,847.143L524.672,846.283L525.526,845.853L526.38,844.993L526.38,844.563L526.807,843.703L526.807,842.843L527.234,842.413L528.515,842.843L530.223,843.703L534.066,846.283L535.347,847.573L536.201,848.863L536.201,850.153L537.055,851.013L538.336,851.873L539.19,852.303L540.471,853.593L541.325,853.593L542.179,854.023L549.439,854.023L550.293,854.453L551.147,855.743L551.574,856.603L552.428,858.753L552.855,859.183L552.855,863.053L553.282,863.913L553.282,864.343L554.136,864.773L554.99,864.773L556.698,864.343L558.833,863.483L560.114,862.623L560.968,862.193L561.395,861.763L563.53,861.333L564.384,861.333L564.811,860.903L564.811,860.043L566.092,860.473L567.8,860.903L575.914,864.773L600.682,872.944L601.963,872.944L617.336,875.524L618.617,876.384L626.304,884.985L626.731,885.415L632.71,893.156L672.425,920.679L673.279,921.109L674.56,921.109L675.841,919.819L676.268,919.819L677.549,921.969L679.684,931L678.83,937.021L667.727,966.694L665.592,973.145L666.873,975.725L667.3,977.015L667.3,978.305L666.019,980.025L665.165,980.885L664.738,981.745L663.457,984.755L663.03,986.475L662.603,988.625L662.603,989.915L663.457,991.635L663.457,994.215L662.176,996.795L662.176,997.655L662.603,1000.235L663.03,1001.955L663.03,1003.675L662.603,1004.535L660.041,1007.545L659.614,1009.265L658.76,1014.426L630.575,1007.545L627.586,1006.255L616.483,1001.094L610.077,1001.094L608.369,1001.524L594.704,1005.824L593.423,1006.254L585.309,1004.534L580.185,1002.384L576.769,1000.234L575.488,1000.234L571.645,1004.104L570.791,1004.534L569.937,1005.394L561.823,1007.544L560.542,1007.544L556.699,1006.254L555.845,1006.684L554.991,1006.684L554.991,1009.694L553.283,1011.414L552.429,1013.134L552.002,1013.564L551.148,1013.564L550.294,1012.704L549.44,1010.984L546.451,1015.284L544.743,1016.574L538.337,1020.444L538.337,1019.584L534.921,1019.154L531.932,1017.864L525.953,1013.994L522.537,1016.574L516.131,1017.004L513.996,1019.584L512.288,1014.853L511.861,1008.402L511.007,1002.811L507.591,1000.661L506.31,999.801L504.602,998.511L501.613,995.071L497.343,983.46L495.635,981.31L493.073,980.45L485.386,979.59Z" style="fill:rgb(43,43,43);fill-rule:nonzero;stroke:rgb(113,113,113);stroke-width:1px;"/>
                <path id="Melaka" d="M538.339,1020.445L544.745,1016.575L546.453,1015.285L549.442,1010.985L550.296,1012.705L551.15,1013.565L552.004,1013.565L552.431,1013.135L553.285,1011.415L554.993,1009.695L554.993,1006.685L555.847,1006.685L556.701,1006.255L560.544,1007.545L561.825,1007.545L569.939,1005.395L570.793,1004.535L571.647,1004.105L575.49,1000.235L576.771,1000.235L580.187,1002.385L585.311,1004.535L593.425,1006.255L594.706,1005.825L608.371,1001.525L610.079,1001.095L616.485,1001.095L627.588,1006.256L630.577,1007.546L658.762,1014.427L654.919,1017.437L650.222,1019.157L648.514,1020.447L644.671,1025.608L643.817,1027.328L643.39,1028.618L643.39,1029.478L643.817,1031.628L643.817,1032.488L639.974,1044.099L639.547,1046.249L639.12,1047.109L639.547,1047.969L639.547,1049.689L639.974,1050.549L639.547,1051.839L639.547,1052.699L639.12,1053.129L635.704,1056.139L635.277,1056.999L636.131,1058.719L636.558,1060.009L637.412,1060.869L638.693,1061.299L642.109,1062.589L642.963,1063.449L645.098,1063.449L645.952,1063.879L646.379,1064.309L646.806,1065.599L646.806,1067.319L646.379,1071.189L645.952,1072.909L645.525,1073.769L644.671,1073.769L642.536,1073.339L640.401,1074.629L636.985,1079.79L609.227,1068.609L577.626,1055.277L570.793,1051.407L565.669,1047.107L550.723,1030.335L548.588,1029.475L544.318,1028.615L540.048,1026.465L537.913,1023.025L538.34,1020.445L538.339,1020.445Z" style="fill:rgb(43,43,43);fill-rule:nonzero;stroke:rgb(113,113,113);stroke-width:1px;"/>
                <path id="Johor" d="M658.764,1014.424L659.618,1009.263L660.045,1007.543L662.607,1004.533L663.034,1003.673L663.034,1001.953L662.607,1000.233L662.18,997.653L662.18,996.793L663.461,994.213L663.461,991.633L662.607,989.913L662.607,988.623L663.034,986.473L663.461,984.753L664.742,981.743L665.169,980.883L666.023,980.023L667.304,978.303L667.304,977.013L666.877,975.723L665.596,973.143L667.731,966.692L678.834,937.019L679.688,930.998L688.229,934.008L698.905,938.308L701.467,940.028L729.652,974.002L736.485,979.593L767.659,992.494L768.94,992.924L769.367,992.924L799.26,981.743L807.374,980.023L810.363,980.023L812.498,981.313L815.06,983.033L826.163,987.333L827.444,988.193L829.152,989.913L830.006,991.633L830.433,992.063L858.618,1008.835L860.326,1009.695L861.18,1009.265L861.18,1008.405L860.753,1007.545L860.753,1007.115L861.607,1006.255L863.742,1003.245L863.742,1001.955L864.169,1000.665L863.742,999.805L863.742,998.515L863.315,997.655L861.607,995.075L861.18,994.645L860.326,994.645L858.618,994.215L857.337,992.925L857.337,991.635L857.764,990.345L858.191,989.915L859.472,988.195L859.899,987.765L859.899,987.335L858.618,984.755L858.618,983.895L859.045,983.465L859.472,982.605L860.326,981.745L860.753,980.885L861.18,980.455L861.607,979.165L861.607,977.875L861.18,977.015L860.753,976.585L860.326,975.725L859.899,975.295L859.045,974.865L857.764,974.005L856.91,973.145L856.91,972.285L857.764,971.425L862.034,969.275L862.461,968.845L864.169,965.835L864.596,964.545L867.158,965.835L870.147,966.265L873.563,966.265L874.844,967.125L877.833,969.705L879.968,970.565L881.676,970.135L886.373,967.985L889.362,969.275L889.789,970.565L889.362,972.285L889.789,974.005L896.622,979.596L899.184,982.606L904.308,993.787L902.6,998.518L902.173,1002.388L903.881,1005.828L918.4,1024.32L920.108,1026.04L924.378,1029.48L925.659,1030.77L926.513,1032.92L926.94,1036.79L927.367,1038.94L928.648,1041.09L932.064,1045.39L932.491,1047.97L932.064,1049.69L930.356,1053.56L929.929,1056.14L931.21,1060.01L940.605,1071.621L945.729,1084.092L949.145,1089.253L951.707,1093.984L952.988,1096.134L956.831,1100.865L958.112,1103.015L959.82,1107.746L960.247,1111.616L959.393,1120.217L960.674,1124.087L962.809,1128.387L965.371,1130.967L967.933,1128.817L969.214,1128.817L974.338,1138.278L976.473,1147.739L979.889,1152.9L981.17,1155.91L981.17,1162.361L982.451,1165.371L984.586,1167.951L986.294,1170.531L985.44,1172.681L986.721,1175.261L988.002,1183.432L992.272,1194.613L993.98,1203.644L993.98,1208.805L992.699,1210.955L990.991,1212.675L991.845,1221.276L990.564,1224.286L983.304,1224.286L982.45,1225.146L980.315,1228.156L979.461,1228.586L970.493,1228.156L966.65,1227.296L958.536,1224.286L956.828,1222.996L956.828,1216.975L955.974,1213.965L953.412,1212.245L950.85,1210.095L948.715,1208.375L947.861,1201.064L952.985,1197.624L960.245,1194.614L964.942,1189.023L961.526,1188.163L957.683,1189.023L954.694,1191.173L947.861,1195.904L946.58,1196.764L945.726,1195.474L944.445,1191.604L938.466,1178.703L933.769,1171.822L929.072,1168.382L928.218,1170.962L929.926,1176.553L937.613,1188.164L937.613,1191.174L936.759,1196.765L937.186,1199.345L938.04,1201.925L938.467,1204.935L938.04,1208.375L930.78,1213.966L921.385,1211.816L904.303,1202.785L899.179,1203.215L891.065,1207.085L887.222,1208.375L879.108,1207.515L876.119,1207.945L872.703,1209.665L862.881,1222.566L856.902,1227.297L849.642,1226.007L849.642,1225.147L847.934,1222.997L846.653,1221.277L845.799,1222.567L845.799,1224.717L847.08,1227.727L847.08,1229.447L846.653,1231.597L843.237,1236.758L840.248,1243.639L837.686,1239.769L830.853,1233.748L828.291,1229.878L826.583,1226.008L820.177,1204.506L816.334,1196.765L810.782,1190.314L802.241,1185.153L778.754,1176.122L745.445,1155.05L737.331,1151.18L733.061,1149.89L728.364,1149.46L725.375,1148.6L722.813,1146.45L719.824,1141.289L715.981,1136.989L711.284,1132.689L705.732,1129.249L699.326,1126.239L696.337,1127.529L686.515,1128.819L683.099,1128.819L678.829,1126.239L676.267,1122.369L672.424,1114.198L669.008,1110.328L652.78,1096.996L650.645,1094.846L649.364,1092.266L651.072,1091.836L651.072,1090.976L650.645,1090.116L650.645,1089.256L648.083,1087.106L644.667,1084.096L636.98,1079.796L640.396,1074.635L642.531,1073.345L644.666,1073.775L645.52,1073.775L645.947,1072.915L646.374,1071.195L646.801,1067.325L646.801,1065.605L646.374,1064.315L645.947,1063.885L645.093,1063.455L642.958,1063.455L642.104,1062.595L638.688,1061.305L637.407,1060.875L636.553,1060.015L636.126,1058.725L635.272,1057.005L635.699,1056.145L639.115,1053.135L639.542,1052.705L639.542,1051.845L639.969,1050.555L639.542,1049.695L639.542,1047.975L639.115,1047.115L639.542,1046.255L639.969,1044.105L643.812,1032.494L643.812,1031.634L643.385,1029.484L643.385,1028.624L643.812,1027.334L644.666,1025.614L648.509,1020.453L650.217,1019.163L654.914,1017.443L658.757,1014.433L658.764,1014.424ZM979.898,941.746L980.325,951.637L979.898,954.217L977.763,955.937L973.92,957.227L970.077,957.227L967.088,956.367L963.245,952.067L961.537,949.917L961.537,948.197L961.964,946.907L960.683,943.467L961.11,941.747L961.964,940.887L964.526,939.597L965.807,938.307L967.515,935.297L967.515,932.287L966.661,929.277L966.234,926.267L966.661,924.117L967.942,921.967L969.65,920.677L971.785,921.107L972.639,921.967L973.066,923.257L973.493,925.407L973.92,927.127L976.482,930.997L977.763,933.577L979.898,941.748L979.898,941.746Z" style="fill:rgb(43,43,43);fill-rule:nonzero;stroke:rgb(113,113,113);stroke-width:1px;"/>
                <path id="Pahang" d="M417.486,577.064L425.6,579.214L427.735,580.074L430.724,582.654L431.578,583.514L433.713,585.234L436.275,585.664L437.556,585.664L437.983,585.234L437.983,583.514L438.41,582.654L438.41,582.224L439.264,581.794L441.826,580.934L442.253,580.504L443.534,580.504L445.669,580.074L448.231,580.074L449.939,580.504L451.647,582.224L452.501,582.654L455.49,583.514L456.344,583.944L457.625,585.664L459.76,587.384L462.749,586.954L464.457,587.814L465.311,588.674L466.592,588.674L470.862,587.384L472.143,586.954L473.424,586.094L475.132,583.514L475.986,582.654L477.694,581.364L483.673,578.354L486.662,575.344L487.943,574.914L492.213,573.624L493.494,573.194L494.348,572.764L494.775,571.904L495.202,571.474L495.629,568.464L496.056,567.174L495.629,562.874L496.483,558.143L496.483,551.262L497.337,549.112L497.764,548.252L499.472,547.392L501.18,546.962L502.461,547.392L503.315,547.392L504.596,548.682L504.596,553.843L505.023,554.703L505.45,555.133L505.877,555.133L506.731,555.563L508.012,555.563L508.866,555.993L509.293,555.993L509.72,556.423L510.147,557.283L510.147,557.713L510.574,558.573L510.574,560.293L511.428,561.153L512.282,561.153L513.99,562.013L514.844,562.873L518.26,564.593L519.114,565.453L519.541,566.313L519.541,568.463L519.114,570.183L519.114,571.473L520.395,574.053L520.395,574.483L520.822,575.343L521.676,575.773L522.957,576.203L523.811,576.203L524.238,575.343L524.238,572.333L524.665,571.903L525.092,570.613L526.373,568.893L528.935,566.313L529.362,565.023L531.497,555.992L531.497,552.122L531.07,551.262L531.924,549.542L533.205,547.822L534.059,547.392L534.486,547.392L535.34,548.252L535.767,549.112L537.902,549.112L538.756,548.682L539.61,547.822L540.464,547.392L540.891,546.962L541.745,547.822L543.453,550.402L543.88,550.832L546.015,550.832L546.442,551.262L549.004,552.982L550.712,552.982L561.815,548.251L563.523,547.821L564.377,548.681L565.231,552.121L565.658,552.551L565.658,555.131L566.512,555.991L573.345,561.582L575.053,563.302L575.48,564.162L575.48,566.312L575.907,567.172L576.334,567.602L576.761,567.602L577.615,568.032L578.896,569.322L579.75,571.042L581.458,571.902L585.301,572.332L587.436,569.752L588.29,569.322L589.571,568.462L593.841,567.602L595.122,567.172L596.403,567.172L600.246,569.752L601.1,570.182L602.808,570.612L605.797,571.042L607.505,571.042L608.359,570.612L609.64,568.032L609.64,567.602L611.775,565.882L613.91,562.872L614.337,562.442L614.337,561.152L613.91,560.292L613.91,559.002L615.618,557.282L617.326,556.852L619.888,555.992L621.596,555.992L622.45,556.422L623.731,556.852L624.585,556.852L625.866,557.282L627.574,556.852L628.855,557.282L629.709,557.282L630.136,557.712L630.99,559.432L631.844,560.292L635.26,562.442L637.395,563.732L637.822,564.162L639.103,564.592L640.811,565.022L641.665,565.022L642.519,564.592L645.081,562.872L647.216,560.722L648.924,558.142L650.205,558.142L650.632,558.572L651.486,559.002L651.486,559.432L653.194,560.292L656.183,560.722L658.745,561.152L659.599,560.722L660.453,559.862L660.453,557.282L660.026,554.272L659.599,553.842L658.745,552.552L658.745,550.832L659.172,549.972L659.599,548.682L660.026,548.252L660.026,545.672L660.453,544.812L661.307,543.952L662.161,543.522L663.015,543.522L663.442,543.952L665.577,545.242L667.285,546.102L671.128,546.102L675.398,554.273L677.106,556.423L680.095,558.143L683.511,560.723L685.646,562.013L689.489,562.873L690.77,563.303L691.624,563.733L695.467,564.163L698.883,564.163L704.435,563.733L707.424,564.593L712.976,570.184L712.976,570.614L713.83,572.334L713.83,573.624L714.684,575.774L714.684,577.064L714.257,577.924L713.83,578.354L713.403,579.214L712.976,583.514L712.976,584.374L712.549,584.804L712.122,585.664L711.695,586.094L711.268,586.094L709.133,586.954L708.706,587.384L707.852,587.814L707.425,588.674L706.998,590.394L709.133,598.995L709.987,600.285L711.695,601.145L712.976,602.435L714.257,604.585L715.111,605.445L715.965,605.875L718.954,605.875L719.808,606.305L721.089,606.305L721.943,605.875L724.505,606.305L724.932,606.305L725.786,606.735L726.213,607.165L727.494,608.025L727.921,608.455L728.775,608.455L729.202,608.025L729.202,607.595L729.629,605.875L731.337,604.155L732.191,604.155L733.045,604.585L739.878,611.036L740.732,612.756L740.732,614.906L741.159,616.196L741.586,617.056L742.867,617.056L743.294,619.636L742.013,622.646L740.732,625.226L740.305,626.946L739.878,628.236L741.159,631.246L740.732,632.106L740.305,632.536L738.597,632.536L736.889,632.106L735.181,632.106L734.327,632.536L733.046,632.966L730.484,635.546L730.057,636.836L728.776,639.846L727.922,641.136L726.214,642.856L725.36,644.146L724.933,645.006L724.933,645.866L724.506,649.306L722.798,657.047L722.798,662.208L722.371,664.788L721.944,666.078L721.944,667.368L719.382,670.378L718.955,671.238L718.955,672.098L721.09,675.538L723.225,677.688L726.214,677.688L736.89,672.957L739.879,672.527L741.16,673.817L742.014,674.247L744.576,675.107L749.7,676.397L750.981,676.827L752.689,678.547L753.97,679.407L760.803,681.987L761.657,681.987L762.511,682.847L762.938,683.707L762.938,684.137L763.365,684.997L763.792,685.427L764.219,685.427L764.646,685.857L765.5,687.147L766.354,688.007L767.208,688.437L768.489,689.297L773.186,692.307L774.467,692.737L775.321,692.737L776.602,691.877L777.883,691.447L778.31,691.877L778.737,692.737L778.737,694.027L779.591,695.747L780.445,696.607L781.726,696.607L783.434,695.747L784.715,695.747L785.569,696.177L785.996,696.607L786.423,699.617L786.423,700.047L786.85,700.907L787.704,702.197L788.985,704.347L792.401,707.357L793.255,709.077L793.255,710.367L792.828,711.657L793.255,712.517L793.255,713.377L795.39,715.527L796.244,716.817L797.952,721.117L798.379,721.977L800.514,724.127L801.368,724.557L801.795,724.127L802.222,723.267L801.368,718.967L801.795,718.537L801.795,717.677L802.649,716.817L803.503,716.387L804.357,715.527L805.211,713.807L805.638,712.517L806.065,710.367L806.065,708.217L804.357,702.626L802.649,699.616L802.649,699.186L802.222,698.326L802.222,695.316L802.649,694.026L802.649,690.586L802.222,689.296L800.941,688.006L799.66,687.576L799.233,687.146L798.806,686.286L798.379,685.856L798.379,685.426L797.952,683.706L797.952,681.986L798.806,677.686L799.233,676.826L800.941,675.106L801.368,673.816L801.795,673.386L802.222,672.526L802.222,669.516L801.795,666.506L801.795,665.646L800.941,661.776L800.941,660.916L801.368,660.916L803.076,661.346L803.93,661.776L805.638,663.496L806.492,663.496L821.011,664.356L823.573,664.786L824.854,665.216L825.708,665.646L825.281,666.076L823.573,666.506L822.292,667.796L818.022,673.387L816.314,676.397L815.887,679.837L817.595,686.288L824.855,704.35L824.001,709.511L819.731,706.931L816.315,712.522L814.18,721.553L813.326,728.004L813.753,735.315L812.899,739.185L809.483,739.185L807.775,741.765L806.067,745.205L805.213,747.785L805.213,751.655L806.494,755.095L814.181,771.867L814.608,774.447L818.024,779.178L824.857,785.629L829.554,792.51L826.565,798.531L833.398,796.811L824.003,817.453L822.722,825.624L826.138,850.567L827.419,854.437L828.273,858.307L824.003,906.473L825.284,914.644L831.69,928.836L841.085,941.307L864.572,964.53L864.145,965.82L862.437,968.83L862.01,969.26L857.74,971.41L856.886,972.27L856.886,973.13L857.74,973.99L859.021,974.85L859.875,975.28L860.302,975.71L860.729,976.57L861.156,977L861.583,977.86L861.583,979.15L861.156,980.44L860.729,980.87L860.302,981.73L859.448,982.59L859.021,983.45L858.594,983.88L858.594,984.74L859.875,987.32L859.875,987.75L859.448,988.18L858.167,989.9L857.74,990.33L857.313,991.62L857.313,992.91L858.594,994.2L860.302,994.63L861.156,994.63L861.583,995.06L863.291,997.64L863.718,998.5L863.718,999.79L864.145,1000.65L863.718,1001.94L863.718,1003.23L861.583,1006.24L860.729,1007.1L860.729,1007.53L861.156,1008.39L861.156,1009.25L860.302,1009.68L858.594,1008.82L830.409,992.048L829.982,991.618L829.128,989.898L827.42,988.178L826.139,987.318L815.036,983.018L812.474,981.298L810.339,980.008L807.35,980.008L799.236,981.728L769.343,992.909L768.916,992.909L767.635,992.479L736.461,979.578L729.628,973.987L701.443,940.013L698.881,938.293L688.205,933.993L679.664,930.983L677.529,921.952L676.248,919.802L675.821,919.802L674.54,921.092L673.259,921.092L672.405,920.662L632.69,893.139L626.711,885.398L626.284,884.968L618.597,876.367L617.316,875.507L601.943,872.927L600.662,872.927L575.894,864.756L567.78,860.886L566.072,860.456L564.791,860.026L564.791,860.886L564.364,861.316L563.51,861.316L561.375,861.746L560.948,862.176L560.094,862.606L558.813,863.466L556.678,864.326L554.97,864.756L554.116,864.756L553.262,864.326L553.262,863.896L552.835,863.036L552.835,859.166L552.408,858.736L551.554,856.586L551.127,855.726L550.273,854.436L549.419,854.006L542.159,854.006L541.305,853.576L540.451,853.576L539.17,852.286L538.316,851.856L537.035,850.996L536.181,850.136L536.181,848.846L535.327,847.556L534.046,846.266L530.203,843.686L528.495,842.826L527.214,842.396L526.787,842.826L526.787,843.686L526.36,844.546L526.36,844.976L525.506,845.836L524.652,846.266L523.798,847.126L518.674,846.266L517.393,846.266L510.133,842.396L507.998,841.966L507.571,841.536L506.717,841.536L493.906,824.764L496.041,819.173L497.749,816.163L498.176,815.303L498.176,814.013L496.468,807.562L496.468,807.132L496.041,805.842L494.76,803.692L494.333,802.832L493.906,802.402L493.906,799.392L494.76,797.672L498.176,791.221L498.603,790.791L499.457,790.361L500.738,789.931L502.019,788.641L502.446,787.781L503.727,781.76L503.3,780.04L501.592,777.03L498.603,772.73L497.749,771.01L497.749,769.72L497.322,768.86L496.041,767.57L495.187,765.42L493.906,764.56L487.5,760.69L483.657,758.97L480.241,758.97L475.971,756.82L474.69,756.39L472.128,753.81L466.576,745.209L464.868,742.199L463.16,741.339L462.306,741.339L461.452,740.909L461.025,740.049L461.025,738.329L461.879,729.728L461.879,727.578L461.452,726.288L461.025,724.568L459.317,722.418L458.463,721.558L457.609,718.118L456.328,703.496L455.901,701.776L453.766,699.626L453.766,698.766L454.193,695.326L458.463,683.285L453.339,676.404L451.631,674.684L450.777,674.254L449.496,673.394L448.642,672.964L448.215,673.394L446.507,674.254L446.08,674.254L445.226,672.964L444.372,670.384L443.091,665.223L443.091,661.783L443.945,660.493L443.945,659.633L442.664,658.773L440.956,658.343L440.529,657.913L437.54,657.483L434.978,656.193L434.551,655.333L434.551,654.473L434.978,652.323L434.978,651.033L435.405,650.173L435.405,648.453L433.697,646.733L432.416,644.153L431.989,635.982L431.562,633.832L430.708,633.402L429.427,632.542L428.573,631.682L428.146,630.822L428.573,629.962L429,629.532L430.281,626.952L430.281,626.522L431.135,625.232L431.135,623.942L430.708,623.082L430.281,622.652L429.427,622.222L427.292,621.792L417.897,619.212L416.616,619.642L415.762,619.212L414.908,618.352L412.773,615.342L410.211,613.622L411.919,610.612L414.481,608.032L414.908,607.172L415.335,605.452L417.043,601.582L417.47,601.152L418.324,600.722L418.751,600.722L419.178,599.862L419.178,598.572L418.324,596.852L415.762,594.272L415.762,593.842L414.481,589.542L414.481,588.252L414.908,584.812L417.47,577.071L417.486,577.064Z" style="fill:rgb(43,43,43);fill-rule:nonzero;stroke:rgb(113,113,113);stroke-width:1px;"/>
                <path id="Terengganu" d="M671.148,546.101L672.002,543.091L672.002,541.801L670.294,537.501L669.867,536.641L669.013,535.781L668.159,534.491L667.732,532.771L667.305,529.761L666.451,528.041L664.743,527.611L663.889,527.611L654.067,520.3L649.37,518.15L647.235,518.15L645.954,519.44L644.673,519.44L642.538,518.58L641.684,517.72L641.684,512.989L642.111,511.269L641.684,508.259L639.976,502.668L639.549,500.948L639.549,498.798L639.976,497.938L640.403,497.938L641.257,497.508L642.111,496.648L642.111,495.358L639.976,485.897L639.976,484.607L640.83,483.747L642.111,483.317L642.965,483.317L642.965,482.457L643.392,482.027L643.392,481.167L643.819,480.737L644.673,479.447L645.1,478.587L644.673,478.157L642.965,476.867L641.257,474.717L640.403,474.287L639.976,473.857L639.122,473.857L638.268,472.997L637.414,472.567L634.852,469.127L633.998,469.127L632.717,468.267L631.863,467.407L630.155,466.547L628.447,466.547L627.166,465.257L626.312,465.257L622.469,463.967L622.042,463.107L622.042,462.247L623.323,458.807L623.323,457.517L623.75,456.657L623.323,455.797L622.896,452.787L623.323,441.176L624.177,436.876L624.177,436.016L626.739,430.855L627.593,426.124L627.166,423.974L626.312,423.114L622.042,419.674L618.626,415.374L618.199,414.514L618.626,413.654L619.053,413.654L619.48,411.504L619.48,408.494L618.199,396.453L618.199,394.733L619.907,393.443L620.334,393.013L620.334,381.402L620.761,377.962L620.761,377.102L619.907,374.952L619.48,373.662L616.918,362.481L617.772,359.901L624.605,352.59L639.978,338.398L647.238,329.367L647.665,328.937L649.373,330.227L659.622,336.678L664.319,340.548L668.162,345.279L670.724,351.73L672.859,354.74L677.983,357.32L713.427,385.703L721.968,389.573L730.082,391.293L733.498,393.443L743.747,402.904L762.11,423.546L782.181,455.8L789.014,472.572L808.658,505.686L820.188,527.188L821.469,531.058L822.323,532.348L825.739,536.648L826.593,538.368L827.02,540.948L825.312,546.539L825.739,551.27L827.447,559.441L830.863,589.544L830.863,594.275L828.728,598.145L827.447,602.015L830.009,611.046L829.582,614.056L835.988,632.548L836.415,638.569L835.988,640.719L832.999,647.6L831.718,650.18L830.437,651.04L827.448,654.48L826.594,656.2L828.302,663.081L827.021,665.231L825.74,665.661L824.886,665.231L823.605,664.801L821.043,664.371L806.524,663.511L805.67,663.511L803.962,661.791L803.108,661.361L801.4,660.931L800.973,660.931L800.973,661.791L801.827,665.661L801.827,666.521L802.254,669.531L802.254,672.541L801.827,673.401L801.4,673.831L800.973,675.121L799.265,676.841L798.838,677.701L797.984,682.001L797.984,683.721L798.411,685.441L798.411,685.871L798.838,686.301L799.265,687.161L799.692,687.591L800.973,688.021L802.254,689.311L802.681,690.601L802.681,694.041L802.254,695.331L802.254,698.341L802.681,699.201L802.681,699.631L804.389,702.641L806.097,708.232L806.097,710.382L805.67,712.532L805.243,713.822L804.389,715.542L803.535,716.402L802.681,716.832L801.827,717.692L801.827,718.552L801.4,718.982L802.254,723.282L801.827,724.142L801.4,724.572L800.546,724.142L798.411,721.992L797.984,721.132L796.276,716.832L795.422,715.542L793.287,713.392L793.287,712.532L792.86,711.672L793.287,710.382L793.287,709.092L792.433,707.372L789.017,704.362L787.736,702.212L786.882,700.922L786.455,700.062L786.455,699.632L786.028,696.622L785.601,696.192L784.747,695.762L783.466,695.762L781.758,696.622L780.477,696.622L779.623,695.762L778.769,694.042L778.769,692.752L778.342,691.892L777.915,691.462L776.634,691.892L775.353,692.752L774.499,692.752L773.218,692.322L768.521,689.312L767.24,688.452L766.386,688.022L765.532,687.162L764.678,685.872L764.251,685.442L763.824,685.442L763.397,685.012L762.97,684.152L762.97,683.722L762.543,682.862L761.689,682.002L760.835,682.002L754.002,679.422L752.721,678.562L751.013,676.842L749.732,676.412L744.608,675.122L742.046,674.262L741.192,673.832L739.911,672.542L736.922,672.972L726.246,677.703L723.257,677.703L721.122,675.553L718.987,672.113L718.987,671.253L719.414,670.393L721.976,667.383L721.976,666.093L722.403,664.803L722.83,662.223L722.83,657.062L724.538,649.321L724.965,645.881L724.965,645.021L725.392,644.161L726.246,642.871L727.954,641.151L728.808,639.861L730.089,636.851L730.516,635.561L733.078,632.981L734.359,632.551L735.213,632.121L736.921,632.121L738.629,632.551L740.337,632.551L740.764,632.121L741.191,631.261L739.91,628.251L740.337,626.961L740.764,625.241L742.045,622.661L743.326,619.651L742.899,617.071L741.618,617.071L741.191,616.211L740.764,614.921L740.764,612.771L739.91,611.051L733.077,604.6L732.223,604.17L731.369,604.17L729.661,605.89L729.234,607.61L729.234,608.04L728.807,608.47L727.953,608.47L727.526,608.04L726.245,607.18L725.818,606.75L724.964,606.32L724.537,606.32L721.975,605.89L721.121,606.32L719.84,606.32L718.986,605.89L715.997,605.89L715.143,605.46L714.289,604.6L713.008,602.45L711.727,601.16L710.019,600.3L709.165,599.01L707.03,590.409L707.457,588.689L707.884,587.829L708.738,587.399L709.165,586.969L711.3,586.109L711.727,586.109L712.154,585.679L712.581,584.819L713.008,584.389L713.008,583.529L713.435,579.229L713.862,578.369L714.289,577.939L714.716,577.079L714.716,575.789L713.862,573.639L713.862,572.349L713.008,570.629L713.008,570.199L707.456,564.608L704.467,563.748L698.915,564.178L695.499,564.178L691.656,563.748L690.802,563.318L689.521,562.888L685.678,562.028L683.543,560.738L680.127,558.158L677.138,556.438L675.43,554.288L671.16,546.117L671.148,546.101Z" style="fill:rgb(43,43,43);fill-rule:nonzero;stroke:rgb(113,113,113);stroke-width:1px;"/>
                <path id="Labuan" d="M2419.001,400.053L2420.994,409.688L2420.994,414.104L2417.406,417.717L2415.811,417.316L2412.223,415.309L2410.628,415.309L2407.04,418.521L2402.256,421.331L2402.655,418.521L2407.838,404.068L2409.433,402.061L2414.616,397.243L2417.407,396.039L2419.002,400.054L2419.001,400.053Z" style="fill:rgb(43,43,43);fill-rule:nonzero;stroke:rgb(113,113,113);stroke-width:1px;"/>
                <path id="Kuala-Lumpur" serif:id="Kuala Lumpur" d="M484.532,857.886L485.813,857.456L486.667,857.026L488.802,856.166L489.656,855.736L490.083,856.166L490.51,857.026L491.364,857.886L492.218,860.036L493.499,862.616L493.499,864.766L493.072,865.626L491.791,866.486L491.364,867.346L490.937,870.356L490.937,871.216L489.656,872.506L489.229,873.796L489.656,875.946L490.51,879.816L491.364,887.557L491.364,888.847L490.937,889.277L490.51,890.137L489.229,890.137L488.375,890.567L487.948,890.997L487.521,892.287L487.094,893.147L486.667,893.577L486.24,893.577L485.386,891.857L484.959,891.857L484.532,891.427L483.251,891.427L477.699,891.857L475.137,891.857L473.429,890.997L473.429,890.137L472.575,887.557L472.575,885.837L473.002,885.407L474.283,883.687L474.283,881.967L473.856,880.677L473.002,879.817L473.002,879.387L472.575,878.957L472.575,877.237L472.148,876.377L471.294,875.517L468.732,874.227L468.305,873.797L467.878,872.937L467.451,872.507L466.597,871.217L466.17,870.357L465.743,863.476L465.743,862.616L468.305,857.885L469.159,856.595L469.586,856.165L469.586,855.735L472.148,854.445L473.429,853.585L474.283,852.725L474.71,852.725L475.991,853.155L478.126,855.735L482.823,857.885L484.531,857.885L484.532,857.886Z" style="fill:rgb(43,43,43);fill-rule:nonzero;stroke:rgb(113,113,113);stroke-width:1px;"/>
                <path id="Putrajaya" d="M477.272,924.114L475.564,923.254L474.71,921.534L474.71,920.244L475.137,918.524L475.991,917.664L476.418,916.804L476.845,916.374L476.845,915.084L475.991,912.074L475.991,910.784L476.845,910.354L476.845,909.064L475.991,908.204L475.564,906.914L475.991,905.624L477.272,905.194L480.261,904.764L481.115,903.904L481.969,903.904L483.677,902.614L484.104,906.484L485.812,907.774L487.093,909.924L487.093,913.364L483.25,918.095L482.396,919.815L481.542,921.105L478.98,923.685L477.272,924.115L477.272,924.114Z" style="fill:rgb(43,43,43);fill-rule:nonzero;stroke:rgb(113,113,113);stroke-width:1px;"/>
            </g>
        </g>
    </g>
</svg>
