<?xml version="1.0" encoding="UTF-8" standalone="no"?><!DOCTYPE svg PUBLIC "-//W3C//DTD SVG 1.1//EN" "http://www.w3.org/Graphics/SVG/1.1/DTD/svg11.dtd"><svg width="100%" height="100%" viewBox="0 0 3334 3334" version="1.1" xmlns="http://www.w3.org/2000/svg" xmlns:xlink="http://www.w3.org/1999/xlink" xml:space="preserve" xmlns:serif="http://www.serif.com/" style="fill-rule:evenodd;clip-rule:evenodd;stroke-linejoin:round;stroke-miterlimit:2;"><path d="M3166.667,666.667c0,91.431 -75.236,166.667 -166.667,166.667l-2666.667,0c-91.431,0 -166.667,-75.236 -166.667,-166.667c-0,-91.431 75.236,-166.667 166.667,-166.667l2666.667,0c91.431,0 166.667,75.236 166.667,166.667Zm0,1000c0,91.431 -75.236,166.667 -166.667,166.667l-2666.667,0c-91.431,0 -166.667,-75.236 -166.667,-166.667c-0,-91.431 75.236,-166.667 166.667,-166.667l2666.667,0c91.431,0 166.667,75.236 166.667,166.667Zm-166.667,1166.667c91.431,0 166.667,-75.236 166.667,-166.667c0,-91.431 -75.236,-166.667 -166.667,-166.667l-2666.667,0c-91.431,0 -166.667,75.236 -166.667,166.667c0,91.431 75.236,166.667 166.667,166.667l2666.667,0Z" style="fill:#fff;"/></svg>