<?xml version="1.0" encoding="UTF-8" standalone="no"?>
<!DOCTYPE svg PUBLIC "-//W3C//DTD SVG 1.1//EN" "http://www.w3.org/Graphics/SVG/1.1/DTD/svg11.dtd">
<svg width="100%" height="100%" viewBox="0 0 800 800" version="1.1" xmlns="http://www.w3.org/2000/svg" xmlns:xlink="http://www.w3.org/1999/xlink" xml:space="preserve" xmlns:serif="http://www.serif.com/" style="fill-rule:evenodd;clip-rule:evenodd;stroke-linejoin:round;stroke-miterlimit:2;">
    <g transform="matrix(33.333333,0,0,33.333333,0,0)">
        <path d="M3.75,4.5L4.5,3.75L10.5,3.75L11.25,4.5L11.25,10.5L10.5,11.25L4.5,11.25L3.75,10.5L3.75,4.5ZM5.25,5.25L5.25,9.75L9.75,9.75L9.75,5.25L5.25,5.25ZM12.75,4.5L13.5,3.75L19.5,3.75L20.25,4.5L20.25,10.5L19.5,11.25L13.5,11.25L12.75,10.5L12.75,4.5ZM14.25,5.25L14.25,9.75L18.75,9.75L18.75,5.25L14.25,5.25ZM3.75,13.5L4.5,12.75L10.5,12.75L11.25,13.5L11.25,19.5L10.5,20.25L4.5,20.25L3.75,19.5L3.75,13.5ZM5.25,14.25L5.25,18.75L9.75,18.75L9.75,14.25L5.25,14.25ZM12.75,13.5L13.5,12.75L19.5,12.75L20.25,13.5L20.25,19.5L19.5,20.25L13.5,20.25L12.75,19.5L12.75,13.5ZM14.25,14.25L14.25,18.75L18.75,18.75L18.75,14.25L14.25,14.25Z" style="fill:white;stroke:white;stroke-width:0.03px;"/>
    </g>
</svg>
