<?xml version="1.0" encoding="UTF-8" standalone="no"?>
<!DOCTYPE svg PUBLIC "-//W3C//DTD SVG 1.1//EN" "http://www.w3.org/Graphics/SVG/1.1/DTD/svg11.dtd">
<svg width="100%" height="100%" viewBox="0 0 800 800" version="1.1" xmlns="http://www.w3.org/2000/svg" xmlns:xlink="http://www.w3.org/1999/xlink" xml:space="preserve" xmlns:serif="http://www.serif.com/" style="fill-rule:evenodd;clip-rule:evenodd;stroke-linejoin:round;stroke-miterlimit:2;">
    <g transform="matrix(0.416667,0,0,0.416667,0,0)">
        <path d="M960,0L960,213.333C1371.627,213.333 1706.667,548.267 1706.667,960C1706.667,1371.733 1371.627,1706.667 960,1706.667C548.373,1706.667 213.333,1371.733 213.333,960C213.333,762.987 291.733,577.493 426.667,439.253L426.667,693.333L640,693.333L640,106.667L53.333,106.667L53.333,320L244.373,320C88.64,494.08 0,720.96 0,960C0,1489.28 430.613,1920 960,1920C1489.387,1920 1920,1489.28 1920,960C1920,430.72 1489.387,0 960,0" style="fill:white;"/>
    </g>
</svg>
