<?xml version="1.0" encoding="UTF-8" standalone="no"?>
<!DOCTYPE svg PUBLIC "-//W3C//DTD SVG 1.1//EN" "http://www.w3.org/Graphics/SVG/1.1/DTD/svg11.dtd">
<svg width="100%" height="100%" viewBox="0 0 800 800" version="1.1" xmlns="http://www.w3.org/2000/svg" xmlns:xlink="http://www.w3.org/1999/xlink" xml:space="preserve" xmlns:serif="http://www.serif.com/" style="fill-rule:evenodd;clip-rule:evenodd;stroke-linecap:round;stroke-linejoin:round;">
    <g transform="matrix(33.333333,0,0,33.333333,0,0)">
        <path d="M13,3L8.2,3C7.08,3 6.52,3 6.092,3.218C5.716,3.41 5.41,3.716 5.218,4.092C5,4.52 5,5.08 5,6.2L5,17.8C5,18.92 5,19.48 5.218,19.908C5.41,20.284 5.716,20.59 6.092,20.782C6.52,21 7.08,21 8.2,21L10,21M13,3L19,9M13,3L13,7.4C13,7.96 13,8.24 13.109,8.454C13.205,8.642 13.358,8.795 13.546,8.891C13.76,9 14.04,9 14.6,9L19,9M19,9L19,10M9,17L11.5,17M9,13L14,13M9,9L10,9M14,21L16.025,20.595C16.201,20.56 16.29,20.542 16.372,20.51C16.445,20.481 16.515,20.444 16.579,20.399C16.652,20.348 16.715,20.285 16.843,20.157L21,16C21.552,15.448 21.552,14.552 21,14C20.448,13.448 19.552,13.448 19,14L14.843,18.157C14.715,18.285 14.652,18.348 14.601,18.421C14.556,18.485 14.519,18.555 14.49,18.628C14.458,18.71 14.44,18.799 14.405,18.975L14,21Z" style="fill:none;fill-rule:nonzero;stroke:white;stroke-width:2px;"/>
    </g>
</svg>
